<?xml version="1.0" encoding="UTF-8"?>
<!DOCTYPE svg PUBLIC "-//W3C//DTD SVG 1.1//EN" "http://www.w3.org/Graphics/SVG/1.1/DTD/svg11.dtd">
<svg xmlns="http://www.w3.org/2000/svg" version="1.1" width="1280px" height="277px" style="shape-rendering:geometricPrecision; text-rendering:geometricPrecision; image-rendering:optimizeQuality; fill-rule:evenodd; clip-rule:evenodd" xmlns:xlink="http://www.w3.org/1999/xlink">
<g><path style="opacity:0.986" fill="#101010" d="M 173.5,15.5 C 172.697,16.4232 172.53,17.4232 173,18.5C 196.42,42.2497 219.42,66.2497 242,90.5C 242.333,145.833 242.667,201.167 243,256.5C 243.333,256.833 243.667,257.167 244,257.5C 245.353,256.296 247.019,255.629 249,255.5C 263.096,257.338 277.263,258.005 291.5,257.5C 291.5,256.5 291.5,255.5 291.5,254.5C 291.667,227.831 291.5,201.165 291,174.5C 290.283,173.956 289.783,173.289 289.5,172.5C 289.918,171.778 290.584,171.278 291.5,171C 279.664,159.498 268.164,147.664 257,135.5C 256.505,133.527 256.338,131.527 256.5,129.5C 258.199,129.34 259.866,129.506 261.5,130C 274.639,143.807 287.806,157.64 301,171.5C 301.333,199.833 301.667,228.167 302,256.5C 302.333,228.5 302.667,200.5 303,172.5C 303.278,173.416 303.778,174.082 304.5,174.5C 304.5,201.167 304.5,227.833 304.5,254.5C 305.598,255.397 305.598,256.23 304.5,257C 307.956,257.18 311.289,257.847 314.5,259C 315.406,260.699 315.739,262.533 315.5,264.5C 298.959,266.094 282.459,266.428 266,265.5C 258.467,265.503 251.301,266.169 244.5,267.5C 164.166,267.667 83.8326,267.5 3.5,267C -0.487487,263.287 -0.487487,259.62 3.5,256C 7.19139,255.58 10.8581,255.08 14.5,254.5C 14.3893,255.117 14.056,255.617 13.5,256C 14.7932,256.49 16.1266,256.657 17.5,256.5C 17.6666,228.498 17.5,200.498 17,172.5C 15.5188,197.744 15.0188,223.077 15.5,248.5C 14.3366,223.003 14.1699,197.337 15,171.5C 16.9481,167.387 19.7814,164.054 23.5,161.5C 23.5858,162.496 23.2524,163.329 22.5,164C 23.448,164.483 24.448,164.649 25.5,164.5C 25.3505,163.448 25.5172,162.448 26,161.5C 31.6667,155.833 37.3333,150.167 43,144.5C 43.6053,142.365 43.1053,142.031 41.5,143.5C 43.3541,140.49 45.6874,137.824 48.5,135.5C 48.3894,137.648 49.056,137.981 50.5,136.5C 53.0205,133.146 56.0205,130.312 59.5,128C 58.944,127.617 58.6107,127.117 58.5,126.5C 63.0168,128.2 64.1835,131.2 62,135.5C 50.0556,148.114 38.0556,160.781 26,173.5C 25.3333,201.5 25.3333,229.5 26,257.5C 26.3076,256.692 26.8076,256.025 27.5,255.5C 35.0009,256.8 42.6676,257.467 50.5,257.5C 58.6629,257.436 66.6629,256.77 74.5,255.5C 74.7828,256.289 75.2828,256.956 76,257.5C 76.6667,225.5 76.6667,193.5 76,161.5C 75.8255,166.351 75.3255,171.018 74.5,175.5C 74.3334,146.498 74.5,117.498 75,88.5C 75.2784,87.5842 75.7784,86.9175 76.5,86.5C 77.1174,86.6107 77.6174,86.944 78,87.5C 96.342,68.7909 114.675,50.1242 133,31.5C 133.667,30.8333 133.667,30.1667 133,29.5C 131.871,31.1412 130.371,32.1412 128.5,32.5C 131.5,28.8333 134.833,25.5 138.5,22.5C 139.332,23.3285 138.999,24.1618 137.5,25C 144.421,19.0918 151.254,12.5918 158,5.5C 158.692,4.56323 158.525,3.89657 157.5,3.5C 158.94,1.23477 160.607,1.0681 162.5,3C 166.718,6.71612 170.385,10.8828 173.5,15.5 Z M 232.5,93.5 C 231.682,146.698 231.682,199.698 232.5,252.5C 231.466,253.687 230.133,254.52 228.5,255C 220.811,255.647 213.144,255.48 205.5,254.5C 205.667,197.499 205.5,140.499 205,83.5C 204.148,82.4293 203.315,81.4293 202.5,80.5C 196.367,78.9778 193.034,81.3111 192.5,87.5C 192.5,142.167 192.5,196.833 192.5,251.5C 192.5,252.5 192.5,253.5 192.5,254.5C 183.534,255.234 174.534,255.234 165.5,254.5C 165.333,177.833 165.5,101.166 166,24.5C 188.398,47.3953 210.564,70.3953 232.5,93.5 Z M 153.5,25.5 C 153.5,41.8333 153.5,58.1667 153.5,74.5C 153.5,134.5 153.5,194.5 153.5,254.5C 144.513,255.657 135.513,255.657 126.5,254.5C 126.5,253.5 126.5,252.5 126.5,251.5C 126.832,195.997 126.499,140.664 125.5,85.5C 125.762,84.0222 125.429,82.6888 124.5,81.5C 118.13,78.7266 114.463,80.7266 113.5,87.5C 113.5,97.5 113.5,107.5 113.5,117.5C 113.5,163.167 113.5,208.833 113.5,254.5C 110.482,254.704 107.482,255.037 104.5,255.5C 98.9861,254.833 93.3195,254.167 87.5,253.5C 87.1667,252.833 86.8333,252.167 86.5,251.5C 87.0968,199.516 87.2635,147.516 87,95.5C 87.3333,94.5 87.6667,93.5 88,92.5C 109.207,69.6273 131.041,47.294 153.5,25.5 Z"/></g>
<g><path style="opacity:0.533" fill="#212121" d="M 157.5,3.5 C 158.525,3.89657 158.692,4.56323 158,5.5C 151.254,12.5918 144.421,19.0918 137.5,25C 138.999,24.1618 139.332,23.3285 138.5,22.5C 144.554,15.7792 150.887,9.44586 157.5,3.5 Z"/></g>
<g><path style="opacity:0.342" fill="#000000" d="M 153.5,24.5 C 153.5,24.8333 153.5,25.1667 153.5,25.5C 131.041,47.294 109.207,69.6273 88,92.5C 87.6667,93.5 87.3333,94.5 87,95.5C 87.2635,147.516 87.0968,199.516 86.5,251.5C 86.8333,252.167 87.1667,252.833 87.5,253.5C 93.3195,254.167 98.9861,254.833 104.5,255.5C 98.2424,255.81 92.0758,255.476 86,254.5C 85.6667,255.167 85.3333,255.833 85,256.5C 84.6031,202.822 84.2698,149.155 84,95.5C 84.3333,94.1667 84.6667,92.8333 85,91.5C 107.5,68.3333 130,45.1667 152.5,22C 153.5,21.3333 154.5,21.3333 155.5,22C 154.619,22.7083 153.953,23.5416 153.5,24.5 Z"/></g>
<g><path style="opacity:0.407" fill="#000000" d="M 232.5,93.5 C 210.564,70.3953 188.398,47.3953 166,24.5C 165.5,101.166 165.333,177.833 165.5,254.5C 174.534,255.234 183.534,255.234 192.5,254.5C 192.082,255.222 191.416,255.722 190.5,256C 190.833,256.333 191.167,256.667 191.5,257C 182.173,257.5 172.839,257.666 163.5,257.5C 163.333,178.833 163.5,100.166 164,21.5C 164.333,21.1667 164.667,20.8333 165,20.5C 188.53,44.0291 211.696,67.8624 234.5,92C 233.956,92.7172 233.289,93.2172 232.5,93.5 Z"/></g>
<g><path style="opacity:0.628" fill="#090909" d="M 153.5,24.5 C 154.832,35.6467 155.499,47.1467 155.5,59C 155.333,70.5 155.167,82 155,93.5C 154.828,86.9867 154.328,80.6534 153.5,74.5C 153.5,58.1667 153.5,41.8333 153.5,25.5C 153.5,25.1667 153.5,24.8333 153.5,24.5 Z"/></g>
<g><path style="opacity:0.376" fill="#1e1e1e" d="M 76.5,86.5 C 93.4969,68.1699 110.83,50.1699 128.5,32.5C 130.371,32.1412 131.871,31.1412 133,29.5C 133.667,30.1667 133.667,30.8333 133,31.5C 114.675,50.1242 96.342,68.7909 78,87.5C 77.6174,86.944 77.1174,86.6107 76.5,86.5 Z"/></g>
<g><path style="opacity:0.327" fill="#010101" d="M 173.5,15.5 C 197.497,39.3304 220.997,63.6638 244,88.5C 245.237,143.826 245.737,199.16 245.5,254.5C 260.845,255.733 276.179,255.733 291.5,254.5C 291.5,255.5 291.5,256.5 291.5,257.5C 277.263,258.005 263.096,257.338 249,255.5C 247.019,255.629 245.353,256.296 244,257.5C 243.667,257.167 243.333,256.833 243,256.5C 242.667,201.167 242.333,145.833 242,90.5C 219.42,66.2497 196.42,42.2497 173,18.5C 172.53,17.4232 172.697,16.4232 173.5,15.5 Z"/></g>
<g><path style="opacity:0.195" fill="#2a2a2a" d="M 505.5,80.5 C 516.181,81.2944 526.847,81.6277 537.5,81.5C 537.144,83.1898 536.144,84.1898 534.5,84.5C 525.225,82.5267 515.558,81.86 505.5,82.5C 505.5,81.8333 505.5,81.1667 505.5,80.5 Z"/></g>
<g><path style="opacity:0.184" fill="#262626" d="M 556.5,82.5 C 557.209,81.596 558.209,81.2627 559.5,81.5C 565.842,81.3338 572.175,81.5005 578.5,82C 579.337,83.0113 579.67,84.1779 579.5,85.5C 578.833,85.1667 578.167,84.8333 577.5,84.5C 577.167,84.5 576.833,84.5 576.5,84.5C 576.167,84.5 575.833,84.5 575.5,84.5C 575.389,83.8826 575.056,83.3826 574.5,83C 568.509,82.5005 562.509,82.3338 556.5,82.5 Z"/></g>
<g><path style="opacity:0.177" fill="#242424" d="M 716.5,84.5 C 715.167,84.5 713.833,84.5 712.5,84.5C 711.737,83.7321 710.737,83.2321 709.5,83C 706.167,82.8333 702.833,82.6667 699.5,82.5C 695.761,82.5136 692.428,83.1803 689.5,84.5C 688.222,84.2178 687.222,83.5511 686.5,82.5C 688.556,81.7839 690.723,81.1172 693,80.5C 700.421,81.3158 707.921,81.8158 715.5,82C 716.252,82.6708 716.586,83.5041 716.5,84.5 Z"/></g>
<g><path style="opacity:0.16" fill="#282828" d="M 802.5,81.5 C 810.167,81.5 817.833,81.5 825.5,81.5C 825.5,82.5 825.5,83.5 825.5,84.5C 824.167,84.5 822.833,84.5 821.5,84.5C 821.389,83.8826 821.056,83.3826 820.5,83C 817.667,82.8333 814.833,82.6667 812,82.5C 808.748,82.5191 805.915,83.1858 803.5,84.5C 803.167,84.5 802.833,84.5 802.5,84.5C 802.5,83.5 802.5,82.5 802.5,81.5 Z"/></g>
<g><path style="opacity:0.146" fill="#282828" d="M 993.5,80.5 C 1012.12,81.4744 1030.79,81.8078 1049.5,81.5C 1049.83,82.1667 1050.17,82.8333 1050.5,83.5C 1031.53,82.3712 1012.53,82.2045 993.5,83C 995.058,83.21 996.391,83.71 997.5,84.5C 995.167,84.5 992.833,84.5 990.5,84.5C 991.5,83.1667 992.5,81.8333 993.5,80.5 Z"/></g>
<g><path style="opacity:0.479" fill="#050505" d="M 1182.5,81.5 C 1182.44,82.609 1182.11,83.609 1181.5,84.5C 1180.84,120.849 1181.51,156.849 1183.5,192.5C 1209.83,192.5 1236.17,192.5 1262.5,192.5C 1262.39,193.117 1262.06,193.617 1261.5,194C 1233.93,194.828 1206.43,194.661 1179,193.5C 1178.5,156.168 1178.33,118.835 1178.5,81.5C 1179.83,81.5 1181.17,81.5 1182.5,81.5 Z"/></g>
<g><path style="opacity:0.925" fill="#323232" d="M 469.5,81.5 C 473.5,81.5 477.5,81.5 481.5,81.5C 481.5,82.5 481.5,83.5 481.5,84.5C 475.167,84.5 468.833,84.5 462.5,84.5C 464.588,82.9805 466.922,81.9805 469.5,81.5 Z"/></g>
<g><path style="opacity:0.94" fill="#303030" d="M 556.5,82.5 C 562.509,82.3338 568.509,82.5005 574.5,83C 575.056,83.3826 575.389,83.8826 575.5,84.5C 568.492,84.6663 561.492,84.4996 554.5,84C 555.044,83.2828 555.711,82.7828 556.5,82.5 Z"/></g>
<g><path style="opacity:0.195" fill="#242424" d="M 595.5,81.5 C 603.528,81.169 611.528,81.5023 619.5,82.5C 620.18,83.8599 620.847,85.1932 621.5,86.5C 621.631,87.3764 621.298,88.0431 620.5,88.5C 619.591,86.6253 618.257,85.292 616.5,84.5C 616.082,83.7784 615.416,83.2784 614.5,83C 608.144,82.4065 601.811,82.5731 595.5,83.5C 595.5,82.8333 595.5,82.1667 595.5,81.5 Z"/></g>
<g><path style="opacity:0.903" fill="#303030" d="M 654.5,81.5 C 661.022,81.1765 667.355,81.5098 673.5,82.5C 673.657,83.8734 673.49,85.2068 673,86.5C 665.442,84.5531 657.609,83.8864 649.5,84.5C 650.913,83.0652 652.58,82.0652 654.5,81.5 Z"/></g>
<g><path style="opacity:0.924" fill="#333333" d="M 764.5,81.5 C 771.167,81.5 777.833,81.5 784.5,81.5C 784.5,82.5 784.5,83.5 784.5,84.5C 777.5,84.5 770.5,84.5 763.5,84.5C 763.263,83.209 763.596,82.209 764.5,81.5 Z"/></g>
<g><path style="opacity:0.875" fill="#383838" d="M 821.5,84.5 C 815.5,84.5 809.5,84.5 803.5,84.5C 805.915,83.1858 808.748,82.5191 812,82.5C 814.833,82.6667 817.667,82.8333 820.5,83C 821.056,83.3826 821.389,83.8826 821.5,84.5 Z"/></g>
<g><path style="opacity:0.977" fill="#373737" d="M 974.5,116.5 C 974.672,117.492 974.338,118.158 973.5,118.5C 973.5,107.167 973.5,95.8333 973.5,84.5C 949.167,84.5 924.833,84.5 900.5,84.5C 912.148,83.1676 924.148,82.501 936.5,82.5C 948.5,82.6667 960.5,82.8333 972.5,83C 974.464,93.9116 975.131,105.078 974.5,116.5 Z"/></g>
<g><path style="opacity:0.906" fill="#373737" d="M 1050.5,83.5 C 1052.1,83.2322 1053.43,83.5655 1054.5,84.5C 1035.5,84.5 1016.5,84.5 997.5,84.5C 996.391,83.71 995.058,83.21 993.5,83C 1012.53,82.2045 1031.53,82.3712 1050.5,83.5 Z"/></g>
<g><path style="opacity:0.893" fill="#2e2e2e" d="M 1085.5,81.5 C 1092.83,81.5 1100.17,81.5 1107.5,81.5C 1107.5,82.5 1107.5,83.5 1107.5,84.5C 1100.5,84.5 1093.5,84.5 1086.5,84.5C 1086.44,83.391 1086.11,82.391 1085.5,81.5 Z"/></g>
<g><path style="opacity:0.745" fill="#323232" d="M 1182.5,81.5 C 1208.17,81.5 1233.83,81.5 1259.5,81.5C 1259.5,82.5 1259.5,83.5 1259.5,84.5C 1233.5,84.5 1207.5,84.5 1181.5,84.5C 1182.11,83.609 1182.44,82.609 1182.5,81.5 Z"/></g>
<g><path style="opacity:0.562" fill="#020202" d="M 125.5,85.5 C 126.499,140.664 126.832,195.997 126.5,251.5C 125.549,252.919 125.216,254.585 125.5,256.5C 127.199,256.34 128.866,256.506 130.5,257C 128.231,257.758 126.064,257.591 124,256.5C 123.831,198.93 123.331,141.43 122.5,84C 123.788,83.7613 124.788,84.2613 125.5,85.5 Z"/></g>
<g><path style="opacity:0.461" fill="#000000" d="M 202.5,80.5 C 203.315,81.4293 204.148,82.4293 205,83.5C 205.5,140.499 205.667,197.499 205.5,254.5C 213.144,255.48 220.811,255.647 228.5,255C 230.133,254.52 231.466,253.687 232.5,252.5C 232.5,254.167 232.5,255.833 232.5,257.5C 222.78,257.808 213.113,257.474 203.5,256.5C 202.667,199.17 202.167,141.836 202,84.5C 197.972,82.4152 197.805,81.7486 201.5,82.5C 202.298,82.0431 202.631,81.3764 202.5,80.5 Z"/></g>
<g><path style="opacity:0.424" fill="#020202" d="M 784.5,81.5 C 787.465,81.73 788.798,83.3966 788.5,86.5C 787.192,119.659 787.192,152.826 788.5,186C 788.333,188.167 788.167,190.333 788,192.5C 787.184,193.823 786.017,194.489 784.5,194.5C 784.484,158.041 784.484,121.375 784.5,84.5C 784.5,83.5 784.5,82.5 784.5,81.5 Z"/></g>
<g><path style="opacity:0.312" fill="#1a1a1a" d="M 401.5,88.5 C 400.566,87.4324 400.232,86.099 400.5,84.5C 397.753,84.1866 395.086,84.52 392.5,85.5C 391.656,88.3408 390.822,91.3408 390,94.5C 389.667,93.8333 389.333,93.1667 389,92.5C 388.781,93.938 388.281,95.2713 387.5,96.5C 386.948,94.9974 386.948,93.3307 387.5,91.5C 388.683,88.2963 390.017,85.1297 391.5,82C 395.211,81.1747 398.878,81.3414 402.5,82.5C 402.709,83.086 403.043,83.586 403.5,84C 402.418,85.3297 401.751,86.8297 401.5,88.5 Z"/></g>
<g><path style="opacity:0.988" fill="#111111" d="M 401.5,88.5 C 400.248,90.0009 399.248,91.6675 398.5,93.5C 397.504,93.5858 396.671,93.2524 396,92.5C 392.623,101.539 389.623,110.539 387,119.5C 387.583,117.998 388.416,116.665 389.5,115.5C 390.107,115.624 390.44,115.957 390.5,116.5C 388.088,122.341 385.921,128.341 384,134.5C 383.263,136.596 382.097,138.263 380.5,139.5C 379.71,138.391 379.21,137.058 379,135.5C 373.99,150.047 369.157,164.714 364.5,179.5C 365.5,179.5 366.5,179.5 367.5,179.5C 369.861,179.326 372.194,178.993 374.5,178.5C 374.598,174.036 375.431,169.703 377,165.5C 382.516,152.018 388.016,138.685 393.5,125.5C 394.354,127.934 395.354,127.767 396.5,125C 396.5,123.333 396.5,121.667 396.5,120C 400.068,117.423 401.068,114.256 399.5,110.5C 400.872,105.882 402.372,101.215 404,96.5C 405.133,94.7888 406.633,94.2888 408.5,95C 411.562,101.95 413.895,109.117 415.5,116.5C 415.587,119.598 415.087,119.932 414,117.5C 418.534,130.401 423.201,143.401 428,156.5C 428.236,154.881 429.069,153.881 430.5,153.5C 431.939,155.588 432.606,157.921 432.5,160.5C 431.351,160.791 430.684,161.624 430.5,163C 433.015,167.486 435.015,172.319 436.5,177.5C 436.833,177.833 437.167,178.167 437.5,178.5C 438.182,177.757 438.849,177.091 439.5,176.5C 440.707,179.606 442.207,182.606 444,185.5C 445.149,188.393 445.649,191.393 445.5,194.5C 435.145,194.832 424.812,194.499 414.5,193.5C 410.148,182.585 405.981,171.585 402,160.5C 401.271,155.331 401.938,150.331 404,145.5C 405.667,144.167 407.333,144.167 409,145.5C 412.545,157.153 417.045,168.319 422.5,179C 423.793,179.49 425.127,179.657 426.5,179.5C 426.264,176.086 425.598,172.753 424.5,169.5C 418.746,154.337 412.746,139.337 406.5,124.5C 404.619,128.819 402.952,133.152 401.5,137.5C 400.732,136.737 400.232,135.737 400,134.5C 398.667,136.5 397.333,138.5 396,140.5C 393.734,148.967 390.901,157.134 387.5,165C 388.756,165.417 389.423,166.25 389.5,167.5C 386.903,176.794 383.236,185.628 378.5,194C 368.839,194.5 359.172,194.666 349.5,194.5C 349.45,188.482 351.283,183.149 355,178.5C 357.142,167.927 360.808,157.927 366,148.5C 367.503,141.315 370.17,134.648 374,128.5C 375.234,122.209 377.067,116.209 379.5,110.5C 380.148,112.086 380.648,113.753 381,115.5C 382.711,110.58 384.544,105.746 386.5,101C 386.333,100.5 386.167,100 386,99.5C 385.583,100.756 384.75,101.423 383.5,101.5C 384.54,97.9634 385.873,94.63 387.5,91.5C 386.948,93.3307 386.948,94.9974 387.5,96.5C 388.281,95.2713 388.781,93.938 389,92.5C 389.333,93.1667 389.667,93.8333 390,94.5C 390.822,91.3408 391.656,88.3408 392.5,85.5C 395.086,84.52 397.753,84.1866 400.5,84.5C 400.232,86.099 400.566,87.4324 401.5,88.5 Z"/></g>
<g><path style="opacity:0.981" fill="#101010" d="M 481.5,81.5 C 482.75,81.5774 483.583,82.244 484,83.5C 484.037,90.6682 484.704,97.6682 486,104.5C 488.377,99.9896 490.877,95.6563 493.5,91.5C 493.714,93.1439 493.38,94.6439 492.5,96C 493.5,96.6667 494.5,96.6667 495.5,96C 495.167,95.6667 494.833,95.3333 494.5,95C 496.167,93.3333 497.833,91.6667 499.5,90C 499.167,89.6667 498.833,89.3333 498.5,89C 499.748,87.6003 500.748,86.1003 501.5,84.5C 512.5,84.5 523.5,84.5 534.5,84.5C 536.144,84.1898 537.144,83.1898 537.5,81.5C 538.613,82.9464 538.78,84.6131 538,86.5C 526.873,100.959 516.54,115.959 507,131.5C 504.667,133.167 502.667,135.167 501,137.5C 497.105,143.07 493.605,148.903 490.5,155C 494.942,163.889 500.608,171.889 507.5,179C 509.833,179.667 512.167,179.667 514.5,179C 509.934,171.354 504.767,164.187 499,157.5C 498.333,155.833 498.333,154.167 499,152.5C 499.922,149.244 501.922,146.911 505,145.5C 505.873,145.735 506.707,146.069 507.5,146.5C 511.692,152.903 515.859,159.237 520,165.5C 522.333,167.833 524.667,170.167 527,172.5C 529.19,177.363 532.19,181.696 536,185.5C 537.167,187.833 538.333,190.167 539.5,192.5C 539.291,193.086 538.957,193.586 538.5,194C 525.82,194.833 513.154,194.666 500.5,193.5C 492.697,180.851 484.197,168.851 475,157.5C 474.333,155.833 474.333,154.167 475,152.5C 478.082,149.341 480.416,145.675 482,141.5C 493.04,127.932 503.206,113.599 512.5,98.5C 509.135,96.8317 506.468,97.4983 504.5,100.5C 503.178,100.67 502.011,100.337 501,99.5C 498.961,103.448 496.628,106.448 494,108.5C 491.754,113.326 489.254,117.992 486.5,122.5C 487.243,123.182 487.909,123.849 488.5,124.5C 487.5,125.167 486.5,125.833 485.5,126.5C 484.778,126.082 484.278,125.416 484,124.5C 481.277,127.557 478.944,130.89 477,134.5C 476.536,128.825 475.869,128.492 475,133.5C 474.821,129.975 474.321,126.641 473.5,123.5C 473.5,114.833 473.5,106.167 473.5,97.5C 471.5,97.5 469.5,97.5 467.5,97.5C 466.778,97.0825 466.278,96.4158 466,95.5C 465.667,96.1667 465.333,96.8333 465,97.5C 464.5,125.165 464.333,152.831 464.5,180.5C 467.224,180.534 469.224,181.201 470.5,182.5C 472.246,182.029 473.913,181.362 475.5,180.5C 478.063,180.737 478.063,181.237 475.5,182C 478.146,182.497 480.813,182.664 483.5,182.5C 488.651,184.791 491.317,188.791 491.5,194.5C 480.321,194.828 469.321,194.495 458.5,193.5C 468.423,192.691 478.423,192.191 488.5,192C 478.839,191.5 469.172,191.334 459.5,191.5C 459.333,155.165 459.5,118.832 460,82.5C 460.417,83.756 461.25,84.4226 462.5,84.5C 468.833,84.5 475.167,84.5 481.5,84.5C 481.5,83.5 481.5,82.5 481.5,81.5 Z"/></g>
<g><path style="opacity:0.931" fill="#363636" d="M 505.5,82.5 C 515.558,81.86 525.225,82.5267 534.5,84.5C 523.5,84.5 512.5,84.5 501.5,84.5C 502.514,83.3263 503.847,82.6596 505.5,82.5 Z"/></g>
<g><path style="opacity:0.994" fill="#111111" d="M 559.5,81.5 C 558.209,81.2627 557.209,81.596 556.5,82.5C 555.711,82.7828 555.044,83.2828 554.5,84C 561.492,84.4996 568.492,84.6663 575.5,84.5C 575.833,84.5 576.167,84.5 576.5,84.5C 576.5,112.5 576.5,140.5 576.5,168.5C 574.473,168.662 572.473,168.495 570.5,168C 575.794,167.182 575.794,166.682 570.5,166.5C 570.667,143.831 570.5,121.164 570,98.5C 569.667,99.8333 569.333,101.167 569,102.5C 568.722,101.584 568.222,100.918 567.5,100.5C 567.5,99.5 567.5,98.5 567.5,97.5C 566.167,97.5 564.833,97.5 563.5,97.5C 563.092,96.3569 562.425,95.3569 561.5,94.5C 560.5,123.492 560.167,152.492 560.5,181.5C 562.199,181.66 563.866,181.494 565.5,181C 564.244,180.583 563.577,179.75 563.5,178.5C 568.418,179.281 573.418,179.781 578.5,180C 579.632,184.413 579.799,188.913 579,193.5C 571.587,194.481 564.087,194.814 556.5,194.5C 556.119,193.069 555.119,192.236 553.5,192C 554.162,178.74 554.496,165.406 554.5,152C 553.973,128.168 553.306,105.335 552.5,83.5C 552.881,82.0689 553.881,81.2355 555.5,81C 557.066,80.235 558.399,80.4017 559.5,81.5 Z"/></g>
<g><path style="opacity:0.421" fill="#020202" d="M 594.5,194.5 C 593.504,194.586 592.671,194.252 592,193.5C 591.5,157.502 591.333,121.502 591.5,85.5C 592.302,86.9516 592.802,88.6183 593,90.5C 593.333,88.5 593.667,86.5 594,84.5C 594.17,120.738 594.67,156.905 595.5,193C 594.944,193.383 594.611,193.883 594.5,194.5 Z"/></g>
<g><path style="opacity:0.973" fill="#0f0f0f" d="M 595.5,81.5 C 595.5,82.1667 595.5,82.8333 595.5,83.5C 602.313,84.4912 609.313,84.8245 616.5,84.5C 618.257,85.292 619.591,86.6253 620.5,88.5C 621.298,88.0431 621.631,87.3764 621.5,86.5C 623.179,90.6543 625.679,94.321 629,97.5C 630.862,101.419 632.529,105.419 634,109.5C 638.388,116.384 642.555,123.384 646.5,130.5C 647.21,132.746 647.71,135.08 648,137.5C 648.168,119.662 648.668,101.995 649.5,84.5C 657.609,83.8864 665.442,84.5531 673,86.5C 673.49,85.2068 673.657,83.8734 673.5,82.5C 674.664,119.331 674.831,156.331 674,193.5C 665,194.833 656,194.833 647,193.5C 642.329,186.129 637.663,178.796 633,171.5C 631.107,168.382 629.774,165.049 629,161.5C 624.062,155.965 620.396,149.632 618,142.5C 616.926,141.382 615.76,140.382 614.5,139.5C 613.301,134.101 610.801,129.434 607,125.5C 606.333,119.167 606.333,112.833 607,106.5C 608.388,105.446 609.888,105.28 611.5,106C 616.392,114.284 620.892,122.784 625,131.5C 629.201,135.228 631.867,139.895 633,145.5C 640.085,156.116 646.419,167.116 652,178.5C 655.409,179.622 658.909,179.789 662.5,179C 663.495,151.907 663.828,124.741 663.5,97.5C 661.833,97.5 660.167,97.5 658.5,97.5C 658.5,120.833 658.5,144.167 658.5,167.5C 657.778,167.082 657.278,166.416 657,165.5C 656.667,142.5 656.333,119.5 656,96.5C 655.667,119.167 655.333,141.833 655,164.5C 654.444,162.405 653.944,162.238 653.5,164C 654.167,165 654.833,166 655.5,167C 655.43,167.765 655.097,168.265 654.5,168.5C 653.206,167.71 652.039,166.71 651,165.5C 646.824,155.815 642.158,146.482 637,137.5C 632.041,132.466 628.875,126.466 627.5,119.5C 626.325,119.719 625.325,119.386 624.5,118.5C 622.06,113.953 619.893,109.287 618,104.5C 616.989,103.663 615.822,103.33 614.5,103.5C 614.528,101.418 613.861,99.5843 612.5,98C 609.183,97.5017 605.85,97.335 602.5,97.5C 603.831,123.901 603.831,150.068 602.5,176C 603.191,177.067 603.691,178.234 604,179.5C 604.414,179.043 604.914,178.709 605.5,178.5C 606.494,173.544 606.827,168.544 606.5,163.5C 607.812,164.145 608.812,165.145 609.5,166.5C 609.669,171.305 609.336,176.138 608.5,181C 608.833,181.167 609.167,181.333 609.5,181.5C 610.666,171.183 610.832,160.849 610,150.5C 609.051,152.093 607.885,153.426 606.5,154.5C 606.335,151.15 606.502,147.817 607,144.5C 608.388,143.446 609.888,143.28 611.5,144C 614.073,148.45 616.573,152.95 619,157.5C 619.494,159.134 619.66,160.801 619.5,162.5C 617.983,162.489 616.816,161.823 616,160.5C 615.536,161.094 615.369,161.761 615.5,162.5C 615.5,171.833 615.5,181.167 615.5,190.5C 616.183,192.176 617.517,192.843 619.5,192.5C 619.389,193.117 619.056,193.617 618.5,194C 610.507,194.5 602.507,194.666 594.5,194.5C 594.611,193.883 594.944,193.383 595.5,193C 594.67,156.905 594.17,120.738 594,84.5C 593.667,86.5 593.333,88.5 593,90.5C 592.802,88.6183 592.302,86.9516 591.5,85.5C 591.167,82.5 592.5,81.1667 595.5,81.5 Z"/></g>
<g><path style="opacity:0.94" fill="#363636" d="M 616.5,84.5 C 609.313,84.8245 602.313,84.4912 595.5,83.5C 601.811,82.5731 608.144,82.4065 614.5,83C 615.416,83.2784 616.082,83.7784 616.5,84.5 Z"/></g>
<g><path style="opacity:0.99" fill="#0f0f0f" d="M 764.5,81.5 C 763.596,82.209 763.263,83.209 763.5,84.5C 770.5,84.5 777.5,84.5 784.5,84.5C 784.484,121.375 784.484,158.041 784.5,194.5C 776.58,194.815 768.747,194.482 761,193.5C 760.667,183.167 760.333,172.833 760,162.5C 756.219,170.506 753.219,178.84 751,187.5C 749.581,189.336 748.414,191.336 747.5,193.5C 740.5,194.833 733.5,194.833 726.5,193.5C 724.145,187.263 721.311,181.263 718,175.5C 716.191,171.076 715.191,166.41 715,161.5C 713.151,158.966 711.485,156.3 710,153.5C 707.871,145.92 705.204,138.587 702,131.5C 701.333,124.167 701.333,116.833 702,109.5C 703.079,107.606 704.413,107.273 706,108.5C 708.806,117.478 712.472,126.144 717,134.5C 717.837,142.528 720.504,149.861 725,156.5C 726.821,161.452 728.488,166.452 730,171.5C 731.565,176.434 734.732,178.934 739.5,179C 741.211,177.565 742.378,175.731 743,173.5C 750.416,151.346 758.916,129.68 768.5,108.5C 769.325,107.614 770.325,107.281 771.5,107.5C 771.5,131.167 771.5,154.833 771.5,178.5C 771.5,179.833 771.5,181.167 771.5,182.5C 773.833,182.5 776.167,182.5 778.5,182.5C 778.351,181.448 778.517,180.448 779,179.5C 779.333,179.833 779.667,180.167 780,180.5C 780.667,152.5 780.667,124.5 780,96.5C 779.667,117.167 779.333,137.833 779,158.5C 778.831,142.661 778.331,126.995 777.5,111.5C 777.5,106.833 777.5,102.167 777.5,97.5C 773.5,97.5 769.5,97.5 765.5,97.5C 763.573,105.229 760.74,112.563 757,119.5C 752.038,133.147 747.038,146.814 742,160.5C 740.231,163.719 738.231,166.719 736,169.5C 729.825,155.328 723.825,140.995 718,126.5C 716.381,116.587 713.048,107.254 708,98.5C 704.606,97.5442 701.106,97.2108 697.5,97.5C 697.333,124.169 697.5,150.835 698,177.5C 698.691,179.891 699.691,179.891 701,177.5C 701.333,171.833 701.667,166.167 702,160.5C 702.837,158.993 704.004,158.493 705.5,159C 706.861,160.584 707.528,162.418 707.5,164.5C 707.082,165.222 706.416,165.722 705.5,166C 706.056,168.237 707.056,170.237 708.5,172C 707.655,173.558 708.321,174.558 710.5,175C 709.833,175.333 709.167,175.667 708.5,176C 710.308,181.304 710.975,186.804 710.5,192.5C 703.5,192.5 696.5,192.5 689.5,192.5C 689.667,162.165 689.5,131.832 689,101.5C 688.667,106.5 688.333,111.5 688,116.5C 687.667,115.833 687.333,115.167 687,114.5C 686.79,116.058 686.29,117.391 685.5,118.5C 685.172,106.322 685.505,94.3217 686.5,82.5C 687.222,83.5511 688.222,84.2178 689.5,84.5C 697.167,84.5 704.833,84.5 712.5,84.5C 713.833,84.5 715.167,84.5 716.5,84.5C 717.55,88.824 718.717,93.1573 720,97.5C 725.535,111.224 731.035,124.891 736.5,138.5C 737.757,136.03 739.257,133.697 741,131.5C 746.743,117.509 751.743,103.175 756,88.5C 757.382,84.7001 759.882,82.0334 763.5,80.5C 764.107,80.6236 764.44,80.9569 764.5,81.5 Z"/></g>
<g><path style="opacity:0.923" fill="#343434" d="M 712.5,84.5 C 704.833,84.5 697.167,84.5 689.5,84.5C 692.428,83.1803 695.761,82.5136 699.5,82.5C 702.833,82.6667 706.167,82.8333 709.5,83C 710.737,83.2321 711.737,83.7321 712.5,84.5 Z"/></g>
<g><path style="opacity:0.961" fill="#101010" d="M 882.5,83.5 C 880.266,83.6199 878.099,83.2865 876,82.5C 874.941,82.6301 874.108,83.1301 873.5,84C 875.134,84.4935 876.801,84.6602 878.5,84.5C 878.5,102.5 878.5,120.5 878.5,138.5C 878.335,141.518 878.502,144.518 879,147.5C 879.249,146.376 879.749,145.376 880.5,144.5C 881.107,144.624 881.44,144.957 881.5,145.5C 879.713,159.826 874.379,172.659 865.5,184C 852.977,195.664 838.977,197.664 823.5,190C 813.846,182.182 807.179,172.348 803.5,160.5C 804.693,160.03 805.36,159.03 805.5,157.5C 804.008,151.607 803.175,145.607 803,139.5C 802.5,121.17 802.333,102.836 802.5,84.5C 802.833,84.5 803.167,84.5 803.5,84.5C 809.5,84.5 815.5,84.5 821.5,84.5C 822.833,84.5 824.167,84.5 825.5,84.5C 825.5,83.5 825.5,82.5 825.5,81.5C 826.074,101.699 826.907,122.032 828,142.5C 829.667,145.5 831.333,148.5 833,151.5C 835.311,153.11 837.811,154.443 840.5,155.5C 843.057,154.593 845.557,153.593 848,152.5C 850.548,148.737 852.548,144.737 854,140.5C 854.333,121.5 854.667,102.5 855,83.5C 855.71,82.0267 856.876,81.3601 858.5,81.5C 858.5,82.5 858.5,83.5 858.5,84.5C 860.5,84.5 862.5,84.5 864.5,84.5C 864.421,102.759 864.421,120.925 864.5,139C 864.325,140.658 863.658,141.991 862.5,143C 863.167,143.333 863.833,143.667 864.5,144C 860.6,145.951 859.266,148.451 860.5,151.5C 861.265,150.388 862.265,149.721 863.5,149.5C 860.902,157.546 856.235,164.046 849.5,169C 843.731,171.101 838.064,170.934 832.5,168.5C 832.5,167.167 832.5,165.833 832.5,164.5C 831.178,164.67 830.011,164.337 829,163.5C 826.112,159.418 823.278,155.251 820.5,151C 820.957,150.586 821.291,150.086 821.5,149.5C 820.605,146.192 819.771,142.859 819,139.5C 818.667,124.833 818.333,110.167 818,95.5C 817.828,102.013 817.328,108.347 816.5,114.5C 816.5,108.833 816.5,103.167 816.5,97.5C 814.5,97.5 812.5,97.5 810.5,97.5C 810.333,111.171 810.5,124.837 811,138.5C 811.82,151.286 816.32,162.453 824.5,172C 834.046,180.852 844.046,181.518 854.5,174C 859.831,169.002 863.997,163.169 867,156.5C 871.564,132.76 872.731,108.76 870.5,84.5C 874.248,79.593 878.248,79.2597 882.5,83.5 Z"/></g>
<g><path style="opacity:0.982" fill="#111111" d="M 896.5,84.5 C 897.833,84.5 899.167,84.5 900.5,84.5C 924.833,84.5 949.167,84.5 973.5,84.5C 973.5,95.8333 973.5,107.167 973.5,118.5C 955.83,118.333 938.164,118.5 920.5,119C 922.119,119.236 923.119,120.069 923.5,121.5C 921.631,123.635 920.964,126.302 921.5,129.5C 920.046,130.52 919.713,131.687 920.5,133C 931.495,133.5 942.495,133.667 953.5,133.5C 955.167,133.5 956.833,133.5 958.5,133.5C 958.5,132.5 958.5,131.5 958.5,130.5C 959.822,130.33 960.989,130.663 962,131.5C 962.499,135.486 962.666,139.486 962.5,143.5C 961.778,143.082 961.278,142.416 961,141.5C 960.667,138.5 960.333,135.5 960,132.5C 959.501,136.152 959.335,139.818 959.5,143.5C 943.833,143.5 928.167,143.5 912.5,143.5C 912.5,131.833 912.5,120.167 912.5,108.5C 930.836,108.667 949.17,108.5 967.5,108C 966.619,107.292 965.953,106.458 965.5,105.5C 966.258,102.648 966.258,99.9815 965.5,97.5C 947.628,96.8209 929.628,96.1542 911.5,95.5C 909.343,96.0505 907.343,96.7171 905.5,97.5C 905.5,111.833 905.5,126.167 905.5,140.5C 904.683,138.031 904.183,135.365 904,132.5C 903.667,120.167 903.333,107.833 903,95.5C 902.333,124.167 902.333,152.833 903,181.5C 903.05,179.256 903.883,177.589 905.5,176.5C 905.5,177.5 905.5,178.5 905.5,179.5C 925.5,179.5 945.5,179.5 965.5,179.5C 966.263,176.859 966.43,174.192 966,171.5C 965.329,170.748 964.496,170.414 963.5,170.5C 963.918,169.778 964.584,169.278 965.5,169C 948.157,168.833 930.824,168.333 913.5,167.5C 912.212,164.033 912.212,160.7 913.5,157.5C 933.326,158.497 953.326,158.83 973.5,158.5C 973.5,169.5 973.5,180.5 973.5,191.5C 947.833,191.5 922.167,191.5 896.5,191.5C 896.5,155.833 896.5,120.167 896.5,84.5 Z"/></g>
<g><path style="opacity:0.417" fill="#030303" d="M 993.5,80.5 C 992.5,81.8333 991.5,83.1667 990.5,84.5C 990.5,95.8333 990.5,107.167 990.5,118.5C 1010.5,118.667 1030.5,118.5 1050.5,118C 1052.25,116.001 1053.59,113.835 1054.5,111.5C 1055.84,115.613 1054.51,118.78 1050.5,121C 1030.17,121.667 1009.83,121.667 989.5,121C 988.511,107.913 988.177,94.7461 988.5,81.5C 990.216,81.3713 991.883,81.038 993.5,80.5 Z"/></g>
<g><path style="opacity:0.988" fill="#111111" d="M 990.5,84.5 C 992.833,84.5 995.167,84.5 997.5,84.5C 1016.5,84.5 1035.5,84.5 1054.5,84.5C 1054.39,85.1174 1054.06,85.6174 1053.5,86C 1056.49,86.2172 1059.15,87.2172 1061.5,89C 1061.17,89.3333 1060.83,89.6667 1060.5,90C 1065.83,94.1691 1068.33,99.6691 1068,106.5C 1068.5,103.518 1068.66,100.518 1068.5,97.5C 1074.37,111.602 1073.04,125.102 1064.5,138C 1075.62,155.771 1074.79,172.938 1062,189.5C 1059.84,191.496 1057.34,192.83 1054.5,193.5C 1033.34,192.503 1012.01,192.169 990.5,192.5C 990.202,172.133 990.535,151.8 991.5,131.5C 993.415,131.784 995.081,131.451 996.5,130.5C 1001.05,130.745 1005.55,130.412 1010,129.5C 1012.45,129.699 1014.28,130.699 1015.5,132.5C 1014.55,141.028 1014.21,149.528 1014.5,158C 1026.5,158.667 1038.5,158.667 1050.5,158C 1050.04,157.586 1049.71,157.086 1049.5,156.5C 1038.34,155.833 1027.34,155.167 1016.5,154.5C 1027.84,154.333 1039.17,154.5 1050.5,155C 1054.73,157.531 1056.06,161.031 1054.5,165.5C 1053.88,165.389 1053.38,165.056 1053,164.5C 1051.4,165.866 1049.57,166.866 1047.5,167.5C 1034.18,168.499 1020.85,168.833 1007.5,168.5C 1007.67,160.493 1007.5,152.493 1007,144.5C 1006.5,152.827 1006.33,161.16 1006.5,169.5C 1005.67,162.011 1005.17,154.344 1005,146.5C 1003.3,145.594 1001.47,145.261 999.5,145.5C 999.5,156.833 999.5,168.167 999.5,179.5C 1016.84,179.667 1034.17,179.5 1051.5,179C 1053.66,178.004 1055.33,176.504 1056.5,174.5C 1057.82,174.33 1058.99,174.663 1060,175.5C 1063.33,166.797 1063.33,158.131 1060,149.5C 1059.77,150.737 1059.27,151.737 1058.5,152.5C 1056.98,149.577 1054.64,147.41 1051.5,146C 1043.17,145.5 1034.84,145.334 1026.5,145.5C 1035.66,144.67 1044.99,144.17 1054.5,144C 1044.51,143.5 1034.51,143.334 1024.5,143.5C 1023.91,139.029 1024.58,135.029 1026.5,131.5C 1026.39,132.117 1026.06,132.617 1025.5,133C 1035.17,133.667 1044.83,133.667 1054.5,133C 1053.83,132.667 1053.17,132.333 1052.5,132C 1054.25,131.215 1055.92,130.382 1057.5,129.5C 1058.3,128.048 1058.8,126.382 1059,124.5C 1059.33,125.167 1059.67,125.833 1060,126.5C 1063.66,118.566 1064,110.566 1061,102.5C 1060.41,103.899 1060.57,105.232 1061.5,106.5C 1061.03,107.463 1060.36,107.463 1059.5,106.5C 1058.01,104.355 1057.01,102.022 1056.5,99.5C 1056.76,98.0222 1056.43,96.6888 1055.5,95.5C 1051.25,95.3483 1046.92,95.1816 1042.5,95C 1043.83,94.6667 1045.17,94.3333 1046.5,94C 1031.17,93.3333 1015.83,93.3333 1000.5,94C 999.663,95.0113 999.33,96.1779 999.5,97.5C 999.5,99.8333 999.5,102.167 999.5,104.5C 998.566,105.568 998.232,106.901 998.5,108.5C 1016.17,108.333 1033.84,108.5 1051.5,109C 1052.08,110.417 1053.08,111.25 1054.5,111.5C 1053.59,113.835 1052.25,116.001 1050.5,118C 1030.5,118.5 1010.5,118.667 990.5,118.5C 990.5,107.167 990.5,95.8333 990.5,84.5 Z"/></g>
<g><path style="opacity:0.356" fill="#000000" d="M 1085.5,81.5 C 1086.11,82.391 1086.44,83.391 1086.5,84.5C 1086.5,112.5 1086.5,140.5 1086.5,168.5C 1110.26,168.4 1133.6,168.4 1156.5,168.5C 1156.17,169.167 1155.83,169.833 1155.5,170.5C 1131.82,170.833 1108.16,170.5 1084.5,169.5C 1083.34,140.542 1083.18,111.542 1084,82.5C 1084.38,81.944 1084.88,81.6107 1085.5,81.5 Z"/></g>
<g><path style="opacity:0.99" fill="#111111" d="M 1107.5,81.5 C 1108.5,81.5 1109.5,81.5 1110.5,81.5C 1110.5,102.833 1110.5,124.167 1110.5,145.5C 1107.17,145.5 1103.83,145.5 1100.5,145.5C 1100.5,129.5 1100.5,113.5 1100.5,97.5C 1098.5,97.5 1096.5,97.5 1094.5,97.5C 1094.5,99.8333 1094.5,102.167 1094.5,104.5C 1093.68,102.031 1093.18,99.3647 1093,96.5C 1092.33,105.833 1092.33,115.167 1093,124.5C 1093.17,118.652 1093.67,112.985 1094.5,107.5C 1094.5,123.167 1094.5,138.833 1094.5,154.5C 1111.34,154.17 1128.01,154.503 1144.5,155.5C 1127.16,155.333 1109.83,155.5 1092.5,156C 1092.96,156.414 1093.29,156.914 1093.5,157.5C 1117,158.829 1140.33,158.829 1163.5,157.5C 1164.5,157.5 1165.5,157.5 1166.5,157.5C 1166.5,169.167 1166.5,180.833 1166.5,192.5C 1166.5,192.833 1166.5,193.167 1166.5,193.5C 1165.54,193.047 1164.71,192.381 1164,191.5C 1138.24,192.495 1112.41,192.828 1086.5,192.5C 1086.5,189.167 1086.5,185.833 1086.5,182.5C 1110.17,182.667 1133.84,182.5 1157.5,182C 1159.39,178.033 1159.89,173.866 1159,169.5C 1158.33,168.748 1157.5,168.414 1156.5,168.5C 1133.6,168.4 1110.26,168.4 1086.5,168.5C 1086.5,140.5 1086.5,112.5 1086.5,84.5C 1093.5,84.5 1100.5,84.5 1107.5,84.5C 1107.5,83.5 1107.5,82.5 1107.5,81.5 Z"/></g>
<g><path style="opacity:0.985" fill="#111111" d="M 1259.5,81.5 C 1260.5,81.4142 1261.33,81.7476 1262,82.5C 1262.5,94.1619 1262.67,105.829 1262.5,117.5C 1243.24,118.321 1223.91,118.821 1204.5,119C 1205.07,119.995 1205.73,120.828 1206.5,121.5C 1205.07,124.502 1205.41,127.335 1207.5,130C 1220.17,130.333 1232.83,130.667 1245.5,131C 1246.82,135.6 1246.82,140.1 1245.5,144.5C 1229.68,143.504 1213.68,143.17 1197.5,143.5C 1197.5,131.833 1197.5,120.167 1197.5,108.5C 1215.84,108.667 1234.17,108.5 1252.5,108C 1250.88,107.764 1249.88,106.931 1249.5,105.5C 1250.47,103.052 1250.81,100.385 1250.5,97.5C 1249.83,96.1529 1249.83,94.9862 1250.5,94C 1230.16,93.1669 1209.83,93.3336 1189.5,94.5C 1191.43,95.213 1191.77,96.213 1190.5,97.5C 1190.5,124.833 1190.5,152.167 1190.5,179.5C 1193.83,179.5 1197.17,179.5 1200.5,179.5C 1196.84,180.074 1193.17,180.907 1189.5,182C 1210.5,182.667 1231.5,182.667 1252.5,182C 1254.07,176.993 1253.74,172.16 1251.5,167.5C 1233.51,166.5 1215.51,166.167 1197.5,166.5C 1197.19,163.287 1197.52,160.287 1198.5,157.5C 1218.66,158.497 1238.99,158.83 1259.5,158.5C 1259.33,164.842 1259.5,171.175 1260,177.5C 1260.5,178.5 1261,179.5 1261.5,180.5C 1261.15,181.696 1260.65,181.696 1260,180.5C 1259.21,184.091 1259.38,187.591 1260.5,191C 1234.66,191.168 1209,191.668 1183.5,192.5C 1181.51,156.849 1180.84,120.849 1181.5,84.5C 1207.5,84.5 1233.5,84.5 1259.5,84.5C 1259.5,83.5 1259.5,82.5 1259.5,81.5 Z"/></g>
<g><path style="opacity:0.214" fill="#1f1f1f" d="M 1049.5,81.5 C 1059.51,82.5131 1065.84,87.8465 1068.5,97.5C 1068.66,100.518 1068.5,103.518 1068,106.5C 1068.33,99.6691 1065.83,94.1691 1060.5,90C 1060.83,89.6667 1061.17,89.3333 1061.5,89C 1059.15,87.2172 1056.49,86.2172 1053.5,86C 1054.06,85.6174 1054.39,85.1174 1054.5,84.5C 1053.43,83.5655 1052.1,83.2322 1050.5,83.5C 1050.17,82.8333 1049.83,82.1667 1049.5,81.5 Z"/></g>
<g><path style="opacity:0.218" fill="#1b1b1b" d="M 505.5,80.5 C 505.5,81.1667 505.5,81.8333 505.5,82.5C 503.847,82.6596 502.514,83.3263 501.5,84.5C 500.748,86.1003 499.748,87.6003 498.5,89C 498.833,89.3333 499.167,89.6667 499.5,90C 497.833,91.6667 496.167,93.3333 494.5,95C 494.833,95.3333 495.167,95.6667 495.5,96C 494.5,96.6667 493.5,96.6667 492.5,96C 493.38,94.6439 493.714,93.1439 493.5,91.5C 496.161,88.8292 498.494,85.8292 500.5,82.5C 502.139,81.6781 503.805,81.0114 505.5,80.5 Z"/></g>
<g><path style="opacity:0.167" fill="#272727" d="M 898.5,81.5 C 924.5,81.5 950.5,81.5 976.5,81.5C 976.5,93.8333 976.5,106.167 976.5,118.5C 975.833,117.833 975.167,117.167 974.5,116.5C 975.131,105.078 974.464,93.9116 972.5,83C 960.5,82.8333 948.5,82.6667 936.5,82.5C 924.148,82.501 912.148,83.1676 900.5,84.5C 899.167,84.5 897.833,84.5 896.5,84.5C 896.782,83.2223 897.449,82.2223 898.5,81.5 Z"/></g>
<g><path style="opacity:0.172" fill="#181818" d="M 654.5,81.5 C 652.58,82.0652 650.913,83.0652 649.5,84.5C 648.668,101.995 648.168,119.662 648,137.5C 647.71,135.08 647.21,132.746 646.5,130.5C 647.496,114.342 647.83,98.0085 647.5,81.5C 649.969,80.9329 652.302,80.9329 654.5,81.5 Z"/></g>
<g><path style="opacity:0.573" fill="#040404" d="M 398.5,93.5 C 396.204,101.391 393.537,109.058 390.5,116.5C 390.44,115.957 390.107,115.624 389.5,115.5C 388.416,116.665 387.583,117.998 387,119.5C 389.623,110.539 392.623,101.539 396,92.5C 396.671,93.2524 397.504,93.5858 398.5,93.5 Z"/></g>
<g><path style="opacity:0.164" fill="#040404" d="M 1056.5,99.5 C 1055.24,99.5386 1054.24,99.0386 1053.5,98C 1035.5,97.5001 1017.5,97.3334 999.5,97.5C 999.33,96.1779 999.663,95.0113 1000.5,94C 1015.83,93.3333 1031.17,93.3333 1046.5,94C 1045.17,94.3333 1043.83,94.6667 1042.5,95C 1046.92,95.1816 1051.25,95.3483 1055.5,95.5C 1056.43,96.6888 1056.76,98.0222 1056.5,99.5 Z"/></g>
<g><path style="opacity:0.423" fill="#020202" d="M 1250.5,97.5 C 1230.5,97.5 1210.5,97.5 1190.5,97.5C 1191.77,96.213 1191.43,95.213 1189.5,94.5C 1209.83,93.3336 1230.16,93.1669 1250.5,94C 1249.83,94.9862 1249.83,96.1529 1250.5,97.5 Z"/></g>
<g><path style="opacity:0.016" fill="#000000" d="M 965.5,97.5 C 945.5,97.5 925.5,97.5 905.5,97.5C 907.343,96.7171 909.343,96.0505 911.5,95.5C 929.628,96.1542 947.628,96.8209 965.5,97.5 Z"/></g>
<g><path style="opacity:0.891" fill="#040404" d="M 658.5,167.5 C 657.332,170.469 655.999,170.802 654.5,168.5C 655.097,168.265 655.43,167.765 655.5,167C 654.833,166 654.167,165 653.5,164C 653.944,162.238 654.444,162.405 655,164.5C 655.333,141.833 655.667,119.167 656,96.5C 656.333,119.5 656.667,142.5 657,165.5C 657.278,166.416 657.778,167.082 658.5,167.5 Z"/></g>
<g><path style="opacity:1" fill="#1a1a1a" d="M 882.5,83.5 C 883.824,100.736 883.824,118.069 882.5,135.5C 881.732,136.263 881.232,137.263 881,138.5C 880.667,136.833 880.333,135.167 880,133.5C 879.802,135.382 879.302,137.048 878.5,138.5C 878.5,120.5 878.5,102.5 878.5,84.5C 876.801,84.6602 875.134,84.4935 873.5,84C 874.108,83.1301 874.941,82.6301 876,82.5C 878.099,83.2865 880.266,83.6199 882.5,83.5 Z"/></g>
<g><path style="opacity:0.663" fill="#010101" d="M 1101.5,96.5 C 1102.5,111.991 1102.83,127.658 1102.5,143.5C 1104.5,143.5 1106.5,143.5 1108.5,143.5C 1108.33,138.156 1108.5,132.823 1109,127.5C 1109.5,133.157 1109.67,138.824 1109.5,144.5C 1106.83,144.5 1104.17,144.5 1101.5,144.5C 1101.5,128.5 1101.5,112.5 1101.5,96.5 Z"/></g>
<g><path style="opacity:0.324" fill="#171717" d="M 858.5,81.5 C 861.167,81.5 863.833,81.5 866.5,81.5C 866.667,102.169 866.5,122.836 866,143.5C 865.427,145.641 864.594,147.641 863.5,149.5C 862.265,149.721 861.265,150.388 860.5,151.5C 859.266,148.451 860.6,145.951 864.5,144C 863.833,143.667 863.167,143.333 862.5,143C 863.658,141.991 864.325,140.658 864.5,139C 864.421,120.925 864.421,102.759 864.5,84.5C 862.5,84.5 860.5,84.5 858.5,84.5C 858.5,83.5 858.5,82.5 858.5,81.5 Z"/></g>
<g><path style="opacity:0.682" fill="#020202" d="M 905.5,140.5 C 905.5,152.5 905.5,164.5 905.5,176.5C 903.883,177.589 903.05,179.256 903,181.5C 902.333,152.833 902.333,124.167 903,95.5C 903.333,107.833 903.667,120.167 904,132.5C 904.183,135.365 904.683,138.031 905.5,140.5 Z"/></g>
<g><path style="opacity:0.416" fill="#1b1b1b" d="M 1094.5,104.5 C 1094.5,105.5 1094.5,106.5 1094.5,107.5C 1093.67,112.985 1093.17,118.652 1093,124.5C 1092.33,115.167 1092.33,105.833 1093,96.5C 1093.18,99.3647 1093.68,102.031 1094.5,104.5 Z"/></g>
<g><path style="opacity:0.972" fill="#0c0c0c" d="M 707.5,164.5 C 711.033,170.602 713.199,177.269 714,184.5C 714.798,187.711 714.298,190.711 712.5,193.5C 703.607,194.816 694.774,194.816 686,193.5C 685.5,168.502 685.333,143.502 685.5,118.5C 686.29,117.391 686.79,116.058 687,114.5C 687.333,115.167 687.667,115.833 688,116.5C 688.333,111.5 688.667,106.5 689,101.5C 689.5,131.832 689.667,162.165 689.5,192.5C 696.5,192.5 703.5,192.5 710.5,192.5C 710.975,186.804 710.308,181.304 708.5,176C 709.167,175.667 709.833,175.333 710.5,175C 708.321,174.558 707.655,173.558 708.5,172C 707.056,170.237 706.056,168.237 705.5,166C 706.416,165.722 707.082,165.222 707.5,164.5 Z"/></g>
<g><path style="opacity:0.226" fill="#0a0a0a" d="M 576.5,84.5 C 576.833,84.5 577.167,84.5 577.5,84.5C 577.333,108.836 577.5,133.169 578,157.5C 578.191,155.292 578.691,153.292 579.5,151.5C 579.666,157.509 579.499,163.509 579,169.5C 575.606,170.456 572.106,170.789 568.5,170.5C 568.743,146.928 568.41,123.595 567.5,100.5C 568.222,100.918 568.722,101.584 569,102.5C 569.333,101.167 569.667,99.8333 570,98.5C 570.5,121.164 570.667,143.831 570.5,166.5C 575.794,166.682 575.794,167.182 570.5,168C 572.473,168.495 574.473,168.662 576.5,168.5C 576.5,140.5 576.5,112.5 576.5,84.5 Z"/></g>
<g><path style="opacity:0.654" fill="#111111" d="M 577.5,84.5 C 578.167,84.8333 578.833,85.1667 579.5,85.5C 579.5,107.5 579.5,129.5 579.5,151.5C 578.691,153.292 578.191,155.292 578,157.5C 577.5,133.169 577.333,108.836 577.5,84.5 Z"/></g>
<g><path style="opacity:0.469" fill="#3d3d3d" d="M 914.5,105.5 C 931.5,105.5 948.5,105.5 965.5,105.5C 965.953,106.458 966.619,107.292 967.5,108C 949.17,108.5 930.836,108.667 912.5,108.5C 913.551,107.778 914.218,106.778 914.5,105.5 Z"/></g>
<g><path style="opacity:0.432" fill="#3b3b3b" d="M 999.5,104.5 C 1017,105.332 1034.66,105.832 1052.5,106C 1054.16,107.444 1054.82,109.278 1054.5,111.5C 1053.08,111.25 1052.08,110.417 1051.5,109C 1033.84,108.5 1016.17,108.333 998.5,108.5C 998.232,106.901 998.566,105.568 999.5,104.5 Z"/></g>
<g><path style="opacity:0.579" fill="#282828" d="M 1198.5,105.5 C 1201.5,105.5 1204.5,105.5 1207.5,105.5C 1207.92,106.222 1208.58,106.722 1209.5,107C 1205.85,107.499 1202.18,107.665 1198.5,107.5C 1198.5,106.833 1198.5,106.167 1198.5,105.5 Z"/></g>
<g><path style="opacity:0.571" fill="#3d3d3d" d="M 1207.5,105.5 C 1221.5,105.5 1235.5,105.5 1249.5,105.5C 1249.88,106.931 1250.88,107.764 1252.5,108C 1234.17,108.5 1215.84,108.667 1197.5,108.5C 1197.5,107.833 1197.83,107.5 1198.5,107.5C 1202.18,107.665 1205.85,107.499 1209.5,107C 1208.58,106.722 1207.92,106.222 1207.5,105.5 Z"/></g>
<g><path style="opacity:0.37" fill="#050505" d="M 504.5,100.5 C 498.361,107.971 493.027,115.971 488.5,124.5C 487.909,123.849 487.243,123.182 486.5,122.5C 489.254,117.992 491.754,113.326 494,108.5C 496.628,106.448 498.961,103.448 501,99.5C 502.011,100.337 503.178,100.67 504.5,100.5 Z"/></g>
<g><path style="opacity:0.471" fill="#1c1c1c" d="M 379.5,110.5 C 380.741,107.55 382.074,104.55 383.5,101.5C 384.75,101.423 385.583,100.756 386,99.5C 386.167,100 386.333,100.5 386.5,101C 384.544,105.746 382.711,110.58 381,115.5C 380.648,113.753 380.148,112.086 379.5,110.5 Z"/></g>
<g><path style="opacity:0.644" fill="#060606" d="M 912.5,108.5 C 912.5,120.167 912.5,131.833 912.5,143.5C 928.167,143.5 943.833,143.5 959.5,143.5C 959.335,139.818 959.501,136.152 960,132.5C 960.333,135.5 960.667,138.5 961,141.5C 961.278,142.416 961.778,143.082 962.5,143.5C 962.389,144.117 962.056,144.617 961.5,145C 944.503,145.5 927.503,145.667 910.5,145.5C 910.5,144.5 910.5,143.5 910.5,142.5C 911.167,131.167 911.833,119.833 912.5,108.5 Z"/></g>
<g><path style="opacity:0.453" fill="#040404" d="M 1198.5,105.5 C 1198.5,106.167 1198.5,106.833 1198.5,107.5C 1197.83,107.5 1197.5,107.833 1197.5,108.5C 1197.5,120.167 1197.5,131.833 1197.5,143.5C 1213.68,143.17 1229.68,143.504 1245.5,144.5C 1229.01,145.497 1212.34,145.83 1195.5,145.5C 1195.33,132.496 1195.5,119.496 1196,106.5C 1196.67,105.748 1197.5,105.414 1198.5,105.5 Z"/></g>
<g><path style="opacity:0.429" fill="#1c1c1c" d="M 563.5,97.5 C 563.5,124.5 563.5,151.5 563.5,178.5C 563.577,179.75 564.244,180.583 565.5,181C 563.866,181.494 562.199,181.66 560.5,181.5C 560.167,152.492 560.5,123.492 561.5,94.5C 562.425,95.3569 563.092,96.3569 563.5,97.5 Z"/></g>
<g><path style="opacity:0.623" fill="#060606" d="M 467.5,97.5 C 467.167,124.508 467.5,151.508 468.5,178.5C 472.779,179.274 477.113,179.774 481.5,180C 482.756,180.417 483.423,181.25 483.5,182.5C 480.813,182.664 478.146,182.497 475.5,182C 478.063,181.237 478.063,180.737 475.5,180.5C 473.913,181.362 472.246,182.029 470.5,182.5C 469.224,181.201 467.224,180.534 464.5,180.5C 464.333,152.831 464.5,125.165 465,97.5C 465.333,96.8333 465.667,96.1667 466,95.5C 466.278,96.4158 466.778,97.0825 467.5,97.5 Z"/></g>
<g><path style="opacity:0.161" fill="#0e0e0e" d="M 914.5,105.5 C 914.218,106.778 913.551,107.778 912.5,108.5C 911.833,119.833 911.167,131.167 910.5,142.5C 909.746,131.172 909.58,119.839 910,108.5C 910.589,106.137 912.089,105.137 914.5,105.5 Z"/></g>
<g><path style="opacity:0.303" fill="#1b1b1b" d="M 399.5,110.5 C 401.068,114.256 400.068,117.423 396.5,120C 396.5,121.667 396.5,123.333 396.5,125C 395.354,127.767 394.354,127.934 393.5,125.5C 394.023,122.11 394.857,118.777 396,115.5C 396.697,113.416 397.864,111.749 399.5,110.5 Z"/></g>
<g><path style="opacity:0.351" fill="#020202" d="M 974.5,116.5 C 975.167,117.167 975.833,117.833 976.5,118.5C 976.586,119.496 976.252,120.329 975.5,121C 958.17,121.5 940.837,121.667 923.5,121.5C 923.119,120.069 922.119,119.236 920.5,119C 938.164,118.5 955.83,118.333 973.5,118.5C 974.338,118.158 974.672,117.492 974.5,116.5 Z"/></g>
<g><path style="opacity:0.347" fill="#000000" d="M 1262.5,117.5 C 1262.49,119.017 1261.82,120.184 1260.5,121C 1242.42,120.172 1224.42,120.339 1206.5,121.5C 1205.73,120.828 1205.07,119.995 1204.5,119C 1223.91,118.821 1243.24,118.321 1262.5,117.5 Z"/></g>
<g><path style="opacity:0.202" fill="#1d1d1d" d="M 469.5,81.5 C 466.922,81.9805 464.588,82.9805 462.5,84.5C 461.25,84.4226 460.417,83.756 460,82.5C 459.5,118.832 459.333,155.165 459.5,191.5C 469.172,191.334 478.839,191.5 488.5,192C 478.423,192.191 468.423,192.691 458.5,193.5C 457.436,157.185 457.27,120.519 458,83.5C 461.494,81.623 465.327,80.9564 469.5,81.5 Z"/></g>
<g><path style="opacity:0.47" fill="#050505" d="M 1057.5,129.5 C 1057.77,127.901 1057.43,126.568 1056.5,125.5C 1060.35,119.734 1061.35,113.401 1059.5,106.5C 1060.36,107.463 1061.03,107.463 1061.5,106.5C 1060.57,105.232 1060.41,103.899 1061,102.5C 1064,110.566 1063.66,118.566 1060,126.5C 1059.67,125.833 1059.33,125.167 1059,124.5C 1058.8,126.382 1058.3,128.048 1057.5,129.5 Z"/></g>
<g><path style="opacity:0.356" fill="#010101" d="M 473.5,123.5 C 474.321,126.641 474.821,129.975 475,133.5C 475.869,128.492 476.536,128.825 477,134.5C 478.944,130.89 481.277,127.557 484,124.5C 484.278,125.416 484.778,126.082 485.5,126.5C 483.077,130.345 480.91,134.345 479,138.5C 477.301,139.406 475.467,139.739 473.5,139.5C 473.5,134.167 473.5,128.833 473.5,123.5 Z"/></g>
<g><path style="opacity:0.237" fill="#070707" d="M 415.5,116.5 C 417.743,120.686 419.91,125.019 422,129.5C 424.605,137.683 427.438,145.683 430.5,153.5C 429.069,153.881 428.236,154.881 428,156.5C 423.201,143.401 418.534,130.401 414,117.5C 415.087,119.932 415.587,119.598 415.5,116.5 Z"/></g>
<g><path style="opacity:0.227" fill="#1d1d1d" d="M 58.5,126.5 C 58.6107,127.117 58.944,127.617 59.5,128C 56.0205,130.312 53.0205,133.146 50.5,136.5C 49.056,137.981 48.3894,137.648 48.5,135.5C 51.2109,131.788 54.5442,128.788 58.5,126.5 Z"/></g>
<g><path style="opacity:0.384" fill="#191919" d="M 921.5,130.5 C 933.833,130.5 946.167,130.5 958.5,130.5C 958.5,131.5 958.5,132.5 958.5,133.5C 956.833,133.5 955.167,133.5 953.5,133.5C 942.628,133.158 931.961,132.158 921.5,130.5 Z"/></g>
<g><path style="opacity:0.146" fill="#181818" d="M 1056.5,125.5 C 1057.43,126.568 1057.77,127.901 1057.5,129.5C 1055.92,130.382 1054.25,131.215 1052.5,132C 1053.17,132.333 1053.83,132.667 1054.5,133C 1044.83,133.667 1035.17,133.667 1025.5,133C 1026.06,132.617 1026.39,132.117 1026.5,131.5C 1026.5,131.167 1026.5,130.833 1026.5,130.5C 1034.51,130.666 1042.51,130.5 1050.5,130C 1053.11,129.208 1055.11,127.708 1056.5,125.5 Z"/></g>
<g><path style="opacity:0.607" fill="#0a0a0a" d="M 996.5,130.5 C 995.081,131.451 993.415,131.784 991.5,131.5C 990.535,151.8 990.202,172.133 990.5,192.5C 1012.01,192.169 1033.34,192.503 1054.5,193.5C 1032.67,194.497 1010.67,194.831 988.5,194.5C 988.333,173.497 988.5,152.497 989,131.5C 991.381,130.565 993.881,130.232 996.5,130.5 Z"/></g>
<g><path style="opacity:0.896" fill="#252525" d="M 921.5,129.5 C 921.5,129.833 921.5,130.167 921.5,130.5C 931.961,132.158 942.628,133.158 953.5,133.5C 942.495,133.667 931.495,133.5 920.5,133C 919.713,131.687 920.046,130.52 921.5,129.5 Z"/></g>
<g><path style="opacity:0.322" fill="#1a1a1a" d="M 1015.5,132.5 C 1016.49,139.648 1016.82,146.981 1016.5,154.5C 1027.34,155.167 1038.34,155.833 1049.5,156.5C 1049.71,157.086 1050.04,157.586 1050.5,158C 1038.5,158.667 1026.5,158.667 1014.5,158C 1014.21,149.528 1014.55,141.028 1015.5,132.5 Z"/></g>
<g><path style="opacity:0.631" fill="#020202" d="M 1026.5,130.5 C 1026.5,130.833 1026.5,131.167 1026.5,131.5C 1024.58,135.029 1023.91,139.029 1024.5,143.5C 1034.51,143.334 1044.51,143.5 1054.5,144C 1044.99,144.17 1035.66,144.67 1026.5,145.5C 1025.17,145.5 1023.83,145.5 1022.5,145.5C 1021.49,140.473 1021.49,135.473 1022.5,130.5C 1023.83,130.5 1025.17,130.5 1026.5,130.5 Z"/></g>
<g><path style="opacity:0.887" fill="#232323" d="M 1204.5,128.5 C 1205.43,129.568 1205.77,130.901 1205.5,132.5C 1217.84,132.333 1230.17,132.5 1242.5,133C 1229.84,133.5 1217.17,133.667 1204.5,133.5C 1204.5,131.833 1204.5,130.167 1204.5,128.5 Z"/></g>
<g><path style="opacity:0.645" fill="#080808" d="M 802.5,81.5 C 802.5,82.5 802.5,83.5 802.5,84.5C 802.333,102.836 802.5,121.17 803,139.5C 803.175,145.607 804.008,151.607 805.5,157.5C 805.36,159.03 804.693,160.03 803.5,160.5C 801.396,154.13 800.229,147.463 800,140.5C 799.333,121.5 799.333,102.5 800,83.5C 800.417,82.244 801.25,81.5774 802.5,81.5 Z"/></g>
<g><path style="opacity:0.427" fill="#020202" d="M 304.5,174.5 C 303.778,174.082 303.278,173.416 303,172.5C 302.667,200.5 302.333,228.5 302,256.5C 301.667,228.167 301.333,199.833 301,171.5C 287.806,157.64 274.639,143.807 261.5,130C 259.866,129.506 258.199,129.34 256.5,129.5C 256.338,131.527 256.505,133.527 257,135.5C 268.164,147.664 279.664,159.498 291.5,171C 290.584,171.278 289.918,171.778 289.5,172.5C 277.396,160.893 265.73,148.727 254.5,136C 253.005,127.105 256.338,124.772 264.5,129C 277.667,142.833 290.833,156.667 304,170.5C 304.49,171.793 304.657,173.127 304.5,174.5 Z"/></g>
<g><path style="opacity:0.078" fill="#292929" d="M 882.5,135.5 C 882.813,139.042 882.479,142.375 881.5,145.5C 881.44,144.957 881.107,144.624 880.5,144.5C 879.749,145.376 879.249,146.376 879,147.5C 878.502,144.518 878.335,141.518 878.5,138.5C 879.302,137.048 879.802,135.382 880,133.5C 880.333,135.167 880.667,136.833 881,138.5C 881.232,137.263 881.732,136.263 882.5,135.5 Z"/></g>
<g><path style="opacity:0.354" fill="#020202" d="M 1054.5,165.5 C 1054.38,167.582 1053.38,169.082 1051.5,170C 1036.33,170.828 1021.33,170.661 1006.5,169.5C 1006.33,161.16 1006.5,152.827 1007,144.5C 1007.5,152.493 1007.67,160.493 1007.5,168.5C 1020.85,168.833 1034.18,168.499 1047.5,167.5C 1049.57,166.866 1051.4,165.866 1053,164.5C 1053.38,165.056 1053.88,165.389 1054.5,165.5 Z"/></g>
<g><path style="opacity:0.332" fill="#181818" d="M 192.5,87.5 C 193.117,87.6107 193.617,87.944 194,88.5C 194.667,144.5 194.667,200.5 194,256.5C 193.802,254.618 193.302,252.952 192.5,251.5C 192.5,196.833 192.5,142.167 192.5,87.5 Z"/></g>
<g><path style="opacity:0.28" fill="#070707" d="M 832.5,168.5 C 828.265,166.438 824.765,163.438 822,159.5C 819.489,154.436 817.822,149.103 817,143.5C 816.5,133.839 816.334,124.172 816.5,114.5C 817.328,108.347 817.828,102.013 818,95.5C 818.333,110.167 818.667,124.833 819,139.5C 819.771,142.859 820.605,146.192 821.5,149.5C 821.291,150.086 820.957,150.586 820.5,151C 823.278,155.251 826.112,159.418 829,163.5C 830.011,164.337 831.178,164.67 832.5,164.5C 832.5,165.833 832.5,167.167 832.5,168.5 Z"/></g>
<g><path style="opacity:0.291" fill="#191919" d="M 606.5,163.5 C 606.5,160.5 606.5,157.5 606.5,154.5C 607.885,153.426 609.051,152.093 610,150.5C 610.832,160.849 610.666,171.183 609.5,181.5C 609.167,181.333 608.833,181.167 608.5,181C 609.336,176.138 609.669,171.305 609.5,166.5C 608.812,165.145 607.812,164.145 606.5,163.5 Z"/></g>
<g><path style="opacity:0.191" fill="#010101" d="M 968.5,154.5 C 949.977,154.837 931.644,155.837 913.5,157.5C 912.212,160.7 912.212,164.033 913.5,167.5C 930.824,168.333 948.157,168.833 965.5,169C 964.584,169.278 963.918,169.778 963.5,170.5C 946.163,170.667 928.83,170.5 911.5,170C 909.085,164.942 909.085,160.109 911.5,155.5C 930.488,154.5 949.488,154.167 968.5,154.5 Z"/></g>
<g><path style="opacity:0.246" fill="#030303" d="M 1260.5,155.5 C 1242.16,155.333 1223.83,155.5 1205.5,156C 1203.32,157.202 1200.99,157.702 1198.5,157.5C 1197.52,160.287 1197.19,163.287 1197.5,166.5C 1215.51,166.167 1233.51,166.5 1251.5,167.5C 1253.74,172.16 1254.07,176.993 1252.5,182C 1231.5,182.667 1210.5,182.667 1189.5,182C 1193.17,180.907 1196.84,180.074 1200.5,179.5C 1202.83,179.5 1205.17,179.5 1207.5,179.5C 1212.96,180.829 1218.79,181.496 1225,181.5C 1230.83,181.333 1236.67,181.167 1242.5,181C 1240.94,180.79 1239.61,180.29 1238.5,179.5C 1242.5,179.5 1246.5,179.5 1250.5,179.5C 1250.5,176.5 1250.5,173.5 1250.5,170.5C 1232.5,170.667 1214.5,170.5 1196.5,170C 1195.37,165.252 1195.2,160.419 1196,155.5C 1217.6,154.169 1239.1,154.169 1260.5,155.5 Z"/></g>
<g><path style="opacity:0.651" fill="#1a1a1a" d="M 968.5,154.5 C 971.206,154.575 973.873,154.908 976.5,155.5C 976.5,168.5 976.5,181.5 976.5,194.5C 950.167,194.5 923.833,194.5 897.5,194.5C 922.833,193.833 948.167,193.167 973.5,192.5C 974.821,180.596 974.821,169.262 973.5,158.5C 953.326,158.83 933.326,158.497 913.5,157.5C 931.644,155.837 949.977,154.837 968.5,154.5 Z"/></g>
<g><path style="opacity:0.498" fill="#1b1b1b" d="M 1165.5,155.5 C 1164.83,156.167 1164.17,156.833 1163.5,157.5C 1140.33,158.829 1117,158.829 1093.5,157.5C 1093.29,156.914 1092.96,156.414 1092.5,156C 1109.83,155.5 1127.16,155.333 1144.5,155.5C 1151.64,154.262 1158.64,154.262 1165.5,155.5 Z"/></g>
<g><path style="opacity:0.492" fill="#1c1c1c" d="M 1260.5,155.5 C 1261.12,155.611 1261.62,155.944 1262,156.5C 1262.5,168.495 1262.67,180.495 1262.5,192.5C 1236.17,192.5 1209.83,192.5 1183.5,192.5C 1209,191.668 1234.66,191.168 1260.5,191C 1259.38,187.591 1259.21,184.091 1260,180.5C 1260.65,181.696 1261.15,181.696 1261.5,180.5C 1261,179.5 1260.5,178.5 1260,177.5C 1259.5,171.175 1259.33,164.842 1259.5,158.5C 1238.99,158.83 1218.66,158.497 1198.5,157.5C 1200.99,157.702 1203.32,157.202 1205.5,156C 1223.83,155.5 1242.16,155.333 1260.5,155.5 Z"/></g>
<g><path style="opacity:0.434" fill="#060606" d="M 380.5,139.5 C 377.045,153.224 372.712,166.557 367.5,179.5C 366.5,179.5 365.5,179.5 364.5,179.5C 369.157,164.714 373.99,150.047 379,135.5C 379.21,137.058 379.71,138.391 380.5,139.5 Z"/></g>
<g><path style="opacity:0.502" fill="#050505" d="M 401.5,137.5 C 397.48,147.533 393.48,157.533 389.5,167.5C 389.423,166.25 388.756,165.417 387.5,165C 390.901,157.134 393.734,148.967 396,140.5C 397.333,138.5 398.667,136.5 400,134.5C 400.232,135.737 400.732,136.737 401.5,137.5 Z"/></g>
<g><path style="opacity:0.017" fill="#000000" d="M 1165.5,155.5 C 1166.12,155.611 1166.62,155.944 1167,156.5C 1167.83,168.674 1167.66,180.674 1166.5,192.5C 1166.5,180.833 1166.5,169.167 1166.5,157.5C 1165.5,157.5 1164.5,157.5 1163.5,157.5C 1164.17,156.833 1164.83,156.167 1165.5,155.5 Z"/></g>
<g><path style="opacity:0.349" fill="#181818" d="M 23.5,161.5 C 27.8298,157.002 31.9965,152.335 36,147.5C 37.451,145.536 39.2843,144.203 41.5,143.5C 43.1053,142.031 43.6053,142.365 43,144.5C 37.3333,150.167 31.6667,155.833 26,161.5C 25.5172,162.448 25.3505,163.448 25.5,164.5C 24.448,164.649 23.448,164.483 22.5,164C 23.2524,163.329 23.5858,162.496 23.5,161.5 Z"/></g>
<g><path style="opacity:0.793" fill="#080808" d="M 552.5,83.5 C 553.306,105.335 553.973,128.168 554.5,152C 554.496,165.406 554.162,178.74 553.5,192C 555.119,192.236 556.119,193.069 556.5,194.5C 555.167,194.5 553.833,194.5 552.5,194.5C 551.183,157.36 551.183,120.36 552.5,83.5 Z"/></g>
<g><path style="opacity:0.325" fill="#272727" d="M 619.5,162.5 C 619.5,172.5 619.5,182.5 619.5,192.5C 617.517,192.843 616.183,192.176 615.5,190.5C 616.825,186.724 617.491,182.557 617.5,178C 617.333,173.833 617.167,169.667 617,165.5C 616.768,164.263 616.268,163.263 615.5,162.5C 615.369,161.761 615.536,161.094 616,160.5C 616.816,161.823 617.983,162.489 619.5,162.5 Z"/></g>
<g><path style="opacity:0.638" fill="#050505" d="M 432.5,160.5 C 435.586,165.395 437.919,170.729 439.5,176.5C 438.849,177.091 438.182,177.757 437.5,178.5C 437.167,178.167 436.833,177.833 436.5,177.5C 435.015,172.319 433.015,167.486 430.5,163C 430.684,161.624 431.351,160.791 432.5,160.5 Z"/></g>
<g><path style="opacity:0.492" fill="#1a1a1a" d="M 14.5,254.5 C 14.5172,252.435 14.8505,250.435 15.5,248.5C 15.0188,223.077 15.5188,197.744 17,172.5C 17.5,200.498 17.6666,228.498 17.5,256.5C 16.1266,256.657 14.7932,256.49 13.5,256C 14.056,255.617 14.3893,255.117 14.5,254.5 Z"/></g>
<g><path style="opacity:0.384" fill="#010101" d="M 58.5,126.5 C 64.7364,125.24 67.2364,127.907 66,134.5C 52.9847,148.182 40.318,162.182 28,176.5C 27.3333,202.167 27.3333,227.833 28,253.5C 30.57,254.416 33.2367,255.082 36,255.5C 47.3841,254.381 58.8841,254.214 70.5,255C 71.7659,254.691 72.9326,254.191 74,253.5C 74.4966,251.19 74.6633,248.857 74.5,246.5C 75.7752,249.396 75.7752,252.396 74.5,255.5C 66.6629,256.77 58.6629,257.436 50.5,257.5C 42.6676,257.467 35.0009,256.8 27.5,255.5C 26.8076,256.025 26.3076,256.692 26,257.5C 25.3333,229.5 25.3333,201.5 26,173.5C 38.0556,160.781 50.0556,148.114 62,135.5C 64.1835,131.2 63.0168,128.2 58.5,126.5 Z"/></g>
<g><path style="opacity:0.871" fill="#050505" d="M 1056.5,174.5 C 1060.82,167.563 1061.49,160.229 1058.5,152.5C 1059.27,151.737 1059.77,150.737 1060,149.5C 1063.33,158.131 1063.33,166.797 1060,175.5C 1058.99,174.663 1057.82,174.33 1056.5,174.5 Z"/></g>
<g><path style="opacity:0.893" fill="#3b3b3b" d="M 615.5,162.5 C 616.268,163.263 616.768,164.263 617,165.5C 617.167,169.667 617.333,173.833 617.5,178C 617.491,182.557 616.825,186.724 615.5,190.5C 615.5,181.167 615.5,171.833 615.5,162.5 Z"/></g>
<g><path style="opacity:0.273" fill="#080808" d="M 771.5,178.5 C 773.306,179.206 775.139,178.873 777,177.5C 777.5,155.503 777.667,133.503 777.5,111.5C 778.331,126.995 778.831,142.661 779,158.5C 779.333,137.833 779.667,117.167 780,96.5C 780.667,124.5 780.667,152.5 780,180.5C 779.667,180.167 779.333,179.833 779,179.5C 778.517,180.448 778.351,181.448 778.5,182.5C 776.167,182.5 773.833,182.5 771.5,182.5C 771.5,181.167 771.5,179.833 771.5,178.5 Z"/></g>
<g><path style="opacity:0.756" fill="#0e0e0e" d="M 1156.5,168.5 C 1157.5,168.414 1158.33,168.748 1159,169.5C 1159.89,173.866 1159.39,178.033 1157.5,182C 1133.84,182.5 1110.17,182.667 1086.5,182.5C 1086.5,185.833 1086.5,189.167 1086.5,192.5C 1112.41,192.828 1138.24,192.495 1164,191.5C 1164.71,192.381 1165.54,193.047 1166.5,193.5C 1139.33,194.829 1112,194.829 1084.5,193.5C 1083.17,189.167 1083.17,184.833 1084.5,180.5C 1108.49,179.5 1132.49,179.167 1156.5,179.5C 1156.81,176.287 1156.48,173.287 1155.5,170.5C 1155.83,169.833 1156.17,169.167 1156.5,168.5 Z"/></g>
<g><path style="opacity:0.368" fill="#111111" d="M 1207.5,179.5 C 1217.83,179.5 1228.17,179.5 1238.5,179.5C 1239.61,180.29 1240.94,180.79 1242.5,181C 1236.67,181.167 1230.83,181.333 1225,181.5C 1218.79,181.496 1212.96,180.829 1207.5,179.5 Z"/></g>
<g><path style="opacity:0.985" fill="#282828" d="M 973.5,192.5 C 947.661,192.831 921.995,192.498 896.5,191.5C 922.167,191.5 947.833,191.5 973.5,191.5C 973.5,180.5 973.5,169.5 973.5,158.5C 974.821,169.262 974.821,180.596 973.5,192.5 Z"/></g>
<g><path style="opacity:0.657" fill="#080808" d="M 898.5,81.5 C 897.449,82.2223 896.782,83.2223 896.5,84.5C 896.5,120.167 896.5,155.833 896.5,191.5C 921.995,192.498 947.661,192.831 973.5,192.5C 948.167,193.167 922.833,193.833 897.5,194.5C 896.5,194.5 895.5,194.5 894.5,194.5C 894.48,156.636 894.48,118.969 894.5,81.5C 895.833,81.5 897.167,81.5 898.5,81.5 Z"/></g>
<g><path style="opacity:0.652" fill="#161616" d="M 74.5,255.5 C 75.7752,252.396 75.7752,249.396 74.5,246.5C 74.5,222.833 74.5,199.167 74.5,175.5C 75.3255,171.018 75.8255,166.351 76,161.5C 76.6667,193.5 76.6667,225.5 76,257.5C 75.2828,256.956 74.7828,256.289 74.5,255.5 Z"/></g>
<g><path style="opacity:0.409" fill="#1f1f1f" d="M 113.5,117.5 C 113.5,107.5 113.5,97.5 113.5,87.5C 114.117,87.3893 114.617,87.056 115,86.5C 115.667,143.167 115.667,199.833 115,256.5C 114.833,209.998 114.333,163.665 113.5,117.5 Z"/></g>
<g><path style="opacity:0.451" fill="#080808" d="M 304.5,254.5 C 308.142,255.08 311.809,255.58 315.5,256C 319.393,259.588 319.393,263.254 315.5,267C 291.836,267.5 268.169,267.667 244.5,267.5C 251.301,266.169 258.467,265.503 266,265.5C 282.459,266.428 298.959,266.094 315.5,264.5C 315.739,262.533 315.406,260.699 314.5,259C 311.289,257.847 307.956,257.18 304.5,257C 305.598,256.23 305.598,255.397 304.5,254.5 Z"/></g>
</svg>
