<?xml version="1.0" encoding="UTF-8"?>
<!DOCTYPE svg PUBLIC "-//W3C//DTD SVG 1.1//EN" "http://www.w3.org/Graphics/SVG/1.1/DTD/svg11.dtd">
<svg xmlns="http://www.w3.org/2000/svg" version="1.1" width="1029px" height="511px" style="shape-rendering:geometricPrecision; text-rendering:geometricPrecision; image-rendering:optimizeQuality; fill-rule:evenodd; clip-rule:evenodd" xmlns:xlink="http://www.w3.org/1999/xlink">
<g><path style="opacity:0.855" fill="#fefefe" d="M 700.5,351.5 C 622.174,349.503 543.507,348.836 464.5,349.5C 421.499,349.333 378.499,349.5 335.5,350C 369.003,350.168 402.336,350.668 435.5,351.5C 399.498,351.667 363.498,351.5 327.5,351C 320.832,350.193 318.499,346.693 320.5,340.5C 322.028,339.139 323.695,337.972 325.5,337C 329.486,336.501 333.486,336.334 337.5,336.5C 337.333,301.832 337.5,267.165 338,232.5C 353.67,215.174 369.503,198.341 385.5,182C 388.623,178.98 392.29,177.98 396.5,179C 400.32,182.955 400.487,187.122 397,191.5C 381.834,206.141 367.167,221.475 353,237.5C 352.5,270.498 352.333,303.498 352.5,336.5C 371.5,336.5 390.5,336.5 409.5,336.5C 409.013,267.788 409.513,199.122 411,130.5C 440.654,100.345 470.154,70.0122 499.5,39.5C 504.206,34.7915 509.206,30.4581 514.5,26.5C 530.205,41.7054 545.705,57.0387 561,72.5C 578.077,91.5734 595.743,109.907 614,127.5C 615.726,129.228 617.059,131.228 618,133.5C 618.5,201.166 618.667,268.833 618.5,336.5C 637.5,336.5 656.5,336.5 675.5,336.5C 675.667,303.165 675.5,269.832 675,236.5C 660.485,221.265 645.818,206.265 631,191.5C 628.614,187.206 629.114,183.373 632.5,180C 636.207,179.004 639.541,179.67 642.5,182C 658.195,198.367 674.029,214.867 690,231.5C 690.5,266.498 690.667,301.498 690.5,336.5C 694.846,336.334 699.179,336.501 703.5,337C 708.332,339.129 709.665,342.629 707.5,347.5C 705.578,349.582 703.245,350.916 700.5,351.5 Z M 506.5,53.5 C 507.688,147.541 507.688,241.874 506.5,336.5C 495.252,336.821 484.085,336.487 473,335.5C 472.667,265.833 472.333,196.167 472,126.5C 467.768,119.907 463.435,119.907 459,126.5C 458.5,196.499 458.333,266.499 458.5,336.5C 447.167,336.5 435.833,336.5 424.5,336.5C 424.333,270.499 424.5,204.499 425,138.5C 451.377,109.292 478.544,80.959 506.5,53.5 Z M 520.5,53.5 C 548.442,80.6595 575.942,108.659 603,137.5C 603.5,203.832 603.667,270.166 603.5,336.5C 592.167,336.5 580.833,336.5 569.5,336.5C 569.667,266.499 569.5,196.499 569,126.5C 565.331,120.817 561.164,120.317 556.5,125C 555.761,129.127 555.261,133.294 555,137.5C 554.5,203.832 554.333,270.166 554.5,336.5C 543.252,336.821 532.085,336.487 521,335.5C 520.5,241.501 520.333,147.501 520.5,53.5 Z"/></g>
<g><path style="opacity:0.352" fill="#e2e2e2" d="M 464.5,349.5 C 543.507,348.836 622.174,349.503 700.5,351.5C 667.167,351.5 633.833,351.5 600.5,351.5C 555.167,350.833 509.833,350.167 464.5,349.5 Z"/></g>
<g><path style="opacity:0.049" fill="#eaeaea" d="M 464.5,349.5 C 509.833,350.167 555.167,350.833 600.5,351.5C 545.5,351.5 490.5,351.5 435.5,351.5C 402.336,350.668 369.003,350.168 335.5,350C 378.499,349.5 421.499,349.333 464.5,349.5 Z"/></g>
<g><path style="opacity:0.792" fill="#fefefe" d="M 222.5,403.5 C 224.857,403.337 227.19,403.503 229.5,404C 230.357,404.689 231.023,405.522 231.5,406.5C 213.807,423.195 196.14,439.861 178.5,456.5C 184.625,462.124 190.625,467.958 196.5,474C 199.554,474.821 202.554,474.655 205.5,473.5C 199.417,468.084 193.75,462.417 188.5,456.5C 189.995,454.83 191.328,452.997 192.5,451C 194.167,450.333 195.833,450.333 197.5,451C 207.535,460.703 217.868,470.037 228.5,479C 230.607,480.264 231.607,482.097 231.5,484.5C 218.163,484.667 204.829,484.5 191.5,484C 182.418,475.814 173.418,467.648 164.5,459.5C 163.369,457.926 163.202,456.259 164,454.5C 177.349,441.65 190.849,428.983 204.5,416.5C 201.554,415.345 198.554,415.179 195.5,416C 185.319,426.348 174.986,436.514 164.5,446.5C 163.914,446.291 163.414,445.957 163,445.5C 162.5,435.506 162.334,425.506 162.5,415.5C 160.167,415.5 157.833,415.5 155.5,415.5C 155.333,434.836 155.5,454.17 156,473.5C 161.083,474.307 166.25,474.807 171.5,475C 175.39,476.936 178.39,479.769 180.5,483.5C 169.181,484.666 157.848,484.832 146.5,484C 146,483.5 145.5,483 145,482.5C 145.306,456.887 145.639,431.22 146,405.5C 154.755,404.35 163.588,404.184 172.5,405C 173.681,408.608 173.681,412.275 172.5,416C 172.673,418.021 173.34,419.854 174.5,421.5C 180.263,416.184 185.93,410.684 191.5,405C 202.008,404.83 212.341,404.33 222.5,403.5 Z"/></g>
<g><path style="opacity:0.817" fill="#fefefe" d="M 262.5,431.5 C 263.33,442.326 263.83,453.326 264,464.5C 264.667,449.833 264.667,435.167 264,420.5C 263.722,421.416 263.222,422.082 262.5,422.5C 262.5,420.167 262.5,417.833 262.5,415.5C 260.5,415.5 258.5,415.5 256.5,415.5C 256.333,434.836 256.5,454.17 257,473.5C 262.417,474.309 267.917,474.809 273.5,475C 274.61,477.737 274.777,480.571 274,483.5C 264.583,484.485 255.083,484.818 245.5,484.5C 245.5,457.833 245.5,431.167 245.5,404.5C 246.822,404.67 247.989,404.337 249,403.5C 257.333,404.167 265.667,404.833 274,405.5C 274.667,425.833 274.667,446.167 274,466.5C 270.333,467.833 266.667,467.833 263,466.5C 262.5,454.838 262.333,443.171 262.5,431.5 Z"/></g>
<g><path style="opacity:0.8" fill="#fefefe" d="M 478.5,425.5 C 477.17,432.133 476.503,439.133 476.5,446.5C 476.5,453.675 476.834,460.675 477.5,467.5C 477.674,469.861 478.007,472.194 478.5,474.5C 480.467,474.739 482.301,474.406 484,473.5C 484.5,454.17 484.667,434.836 484.5,415.5C 480.116,415.174 475.783,415.508 471.5,416.5C 462.813,431.879 454.147,447.212 445.5,462.5C 444.201,464.142 442.701,465.476 441,466.5C 440.228,466.355 439.561,466.022 439,465.5C 430.009,448.818 420.843,432.318 411.5,416C 407.179,415.501 402.846,415.334 398.5,415.5C 398.333,434.836 398.5,454.17 399,473.5C 400.699,474.406 402.533,474.739 404.5,474.5C 404.334,469.489 404.501,464.489 405,459.5C 406.049,458.483 407.216,458.316 408.5,459C 410.617,464.069 413.117,468.902 416,473.5C 416.789,477.091 416.622,480.591 415.5,484C 406.506,484.5 397.506,484.666 388.5,484.5C 388.5,457.833 388.5,431.167 388.5,404.5C 398.172,404.334 407.839,404.5 417.5,405C 425.55,418.939 433.717,432.772 442,446.5C 449.458,434.053 456.458,421.387 463,408.5C 464.167,407.333 465.333,406.167 466.5,405C 476.415,404.004 486.082,403.837 495.5,404.5C 495.5,431.167 495.5,457.833 495.5,484.5C 486.161,484.666 476.827,484.5 467.5,484C 466.683,476.246 466.183,468.412 466,460.5C 461.879,468.578 457.379,476.411 452.5,484C 445.117,484.799 437.783,484.632 430.5,483.5C 421.717,468.638 413.217,453.638 405,438.5C 404.333,433.833 404.333,429.167 405,424.5C 405.928,422.665 407.094,422.332 408.5,423.5C 417.616,440.906 427.616,457.739 438.5,474C 440.833,474.667 443.167,474.667 445.5,474C 455.554,456.718 465.721,439.552 476,422.5C 477.045,423.373 477.878,424.373 478.5,425.5 Z"/></g>
<g><path style="opacity:0.801" fill="#fefefe" d="M 595.5,408.5 C 594.883,408.389 594.383,408.056 594,407.5C 593.173,420.673 593.34,433.673 594.5,446.5C 591.782,467.222 580.115,479.722 559.5,484C 537.677,486.343 521.844,477.843 512,458.5C 510.592,454.943 509.592,451.276 509,447.5C 508.5,433.171 508.333,418.837 508.5,404.5C 517.621,404.407 526.621,404.407 535.5,404.5C 536.333,417.821 536.833,431.154 537,444.5C 539.019,452.439 544.186,456.439 552.5,456.5C 559.114,456.056 563.614,452.723 566,446.5C 567.26,432.888 567.927,419.222 568,405.5C 570.506,403.177 573.34,402.844 576.5,404.5C 577.192,405.025 577.692,405.692 578,406.5C 578.891,420.874 578.557,435.208 577,449.5C 568.072,467.587 554.572,472.087 536.5,463C 530.905,458.409 527.405,452.576 526,445.5C 525.5,435.506 525.334,425.506 525.5,415.5C 523.5,415.5 521.5,415.5 519.5,415.5C 519.192,427.539 519.692,439.539 521,451.5C 526.725,465.207 537.058,472.873 552,474.5C 570.718,471.782 581.385,461.115 584,442.5C 584.333,430.167 584.667,417.833 585,405.5C 587.47,403.513 590.303,403.013 593.5,404C 595.037,405.11 595.703,406.61 595.5,408.5 Z"/></g>
<g><path style="opacity:0.831" fill="#fefefe" d="M 677.5,450.5 C 677.611,449.883 677.944,449.383 678.5,449C 661.833,448.333 645.167,448.333 628.5,449C 630.708,449.191 632.708,449.691 634.5,450.5C 631.833,450.5 629.167,450.5 626.5,450.5C 626.5,440.833 626.5,431.167 626.5,421.5C 645.833,421.5 665.167,421.5 684.5,421.5C 684.261,419.533 684.594,417.699 685.5,416C 663.503,415.5 641.503,415.333 619.5,415.5C 619.5,434.833 619.5,454.167 619.5,473.5C 641.118,473.638 662.785,473.638 684.5,473.5C 684.5,471.5 684.5,469.5 684.5,467.5C 682.833,467.5 681.167,467.5 679.5,467.5C 679.611,466.883 679.944,466.383 680.5,466C 672,465.833 663.5,465.667 655,465.5C 646.139,465.502 637.639,466.169 629.5,467.5C 628.5,467.5 627.5,467.5 626.5,467.5C 626.335,463.818 626.501,460.152 627,456.5C 627.414,456.043 627.914,455.709 628.5,455.5C 650.79,456.323 673.124,456.823 695.5,457C 696.485,466.083 696.818,475.249 696.5,484.5C 667.498,484.667 638.498,484.5 609.5,484C 608.339,457.906 608.172,431.739 609,405.5C 609.5,405 610,404.5 610.5,404C 638.779,404.308 667.113,404.642 695.5,405C 696.833,414 696.833,423 695.5,432C 675.836,432.5 656.169,432.667 636.5,432.5C 636.261,434.467 636.594,436.301 637.5,438C 651.5,438.333 665.5,438.667 679.5,439C 680.46,442.73 680.793,446.563 680.5,450.5C 679.5,450.5 678.5,450.5 677.5,450.5 Z"/></g>
<g><path style="opacity:0.856" fill="#fefefe" d="M 838.5,406.5 C 837.504,420.323 837.171,434.323 837.5,448.5C 834.813,448.336 832.146,448.503 829.5,449C 830.056,449.383 830.389,449.883 830.5,450.5C 829.504,450.586 828.671,450.252 828,449.5C 827.5,438.172 827.333,426.838 827.5,415.5C 825.167,415.5 822.833,415.5 820.5,415.5C 820.185,428.883 820.518,442.216 821.5,455.5C 847.18,455.838 872.513,456.838 897.5,458.5C 896.507,466.65 896.174,474.983 896.5,483.5C 868.328,483.169 840.328,483.502 812.5,484.5C 810.586,481.316 809.92,477.649 810.5,473.5C 834.188,473.347 857.855,473.68 881.5,474.5C 886.333,474.664 888.333,472.331 887.5,467.5C 884.833,467.5 882.167,467.5 879.5,467.5C 880.263,466.732 881.263,466.232 882.5,466C 870.171,465.5 857.838,465.333 845.5,465.5C 834.495,465.333 823.495,465.5 812.5,466C 823.008,466.17 833.341,466.67 843.5,467.5C 832.5,467.5 821.5,467.5 810.5,467.5C 810.333,446.497 810.5,425.497 811,404.5C 814.473,404.089 817.973,403.755 821.5,403.5C 827.569,403.743 833.236,404.743 838.5,406.5 Z"/></g>
<g><path style="opacity:0.756" fill="#fefefe" d="M 74.5,404.5 C 78.1667,404.5 81.8333,404.5 85.5,404.5C 85.6602,406.199 85.4935,407.866 85,409.5C 73.3333,429.167 61.6667,448.833 50,468.5C 49.187,470.436 48.687,472.436 48.5,474.5C 51.1569,474.838 53.4902,474.171 55.5,472.5C 66.3194,453.532 77.1528,434.532 88,415.5C 89.6667,414.167 91.3333,414.167 93,415.5C 106.144,438.439 118.977,461.439 131.5,484.5C 121.161,484.666 110.828,484.5 100.5,484C 99.5838,483.626 98.7504,483.126 98,482.5C 94.8027,475.038 90.8027,468.038 86,461.5C 84.6306,456.563 85.7973,452.396 89.5,449C 91.3867,448.837 92.8867,449.671 94,451.5C 97.9668,458.813 101.967,466.147 106,473.5C 108.466,474.777 110.966,474.777 113.5,473.5C 106.035,461.383 99.0345,449.05 92.5,436.5C 91.7579,435.713 90.9246,435.047 90,434.5C 80.8996,451.258 71.3996,467.758 61.5,484C 50.9231,484.819 40.4231,484.652 30,483.5C 30.9113,480.973 31.9113,478.306 33,475.5C 46.8585,451.774 60.6919,428.107 74.5,404.5 Z"/></g>
<g><path style="opacity:0.798" fill="#fefefe" d="M 313.5,484.5 C 305.35,483.507 297.017,483.174 288.5,483.5C 288.667,458.164 288.5,432.831 288,407.5C 287.5,432.498 287.333,457.498 287.5,482.5C 286.172,456.961 286.172,431.294 287.5,405.5C 296.816,404.335 306.149,404.168 315.5,405C 325.314,416.782 335.481,428.282 346,439.5C 346.333,428.167 346.667,416.833 347,405.5C 356,404.167 365,404.167 374,405.5C 374.5,431.831 374.667,458.165 374.5,484.5C 364.727,484.948 355.061,484.448 345.5,483C 331.946,467.283 318.446,451.45 305,435.5C 304.501,430.845 304.334,426.179 304.5,421.5C 307.263,421.744 309.429,423.077 311,425.5C 324.459,441.961 338.292,458.128 352.5,474C 356.152,474.499 359.818,474.665 363.5,474.5C 363.5,454.833 363.5,435.167 363.5,415.5C 361.167,415.5 358.833,415.5 356.5,415.5C 356.253,430.183 356.586,444.85 357.5,459.5C 357.615,462.388 356.948,465.055 355.5,467.5C 339.999,450.828 324.999,433.661 310.5,416C 306.514,415.501 302.514,415.334 298.5,415.5C 298.333,434.836 298.5,454.17 299,473.5C 300.667,474.833 302.333,474.833 304,473.5C 304.5,465.173 304.666,456.84 304.5,448.5C 314.596,452.527 318.263,460.027 315.5,471C 315.493,475.886 314.826,480.386 313.5,484.5 Z"/></g>
<g><path style="opacity:0.819" fill="#fefefe" d="M 777.5,450.5 C 778.239,450.631 778.906,450.464 779.5,450C 768.559,448.427 757.559,448.094 746.5,449C 747.416,449.278 748.082,449.778 748.5,450.5C 746.61,450.703 745.11,450.037 744,448.5C 743.722,445.222 744.222,442.055 745.5,439C 757.263,438.958 768.93,438.292 780.5,437C 788.338,429.31 787.672,422.31 778.5,416C 759.17,415.5 739.836,415.333 720.5,415.5C 720.5,417.5 720.5,419.5 720.5,421.5C 738.503,421.333 756.503,421.5 774.5,422C 775.766,422.309 776.933,422.809 778,423.5C 778.667,425.833 778.667,428.167 778,430.5C 776.933,431.191 775.766,431.691 774.5,432C 752.836,432.5 731.169,432.667 709.5,432.5C 709.5,423.167 709.5,413.833 709.5,404.5C 732.502,404.333 755.502,404.5 778.5,405C 794.699,410.229 800.199,421.063 795,437.5C 793.167,439.833 791.333,442.167 789.5,444.5C 796.558,452.282 798.392,461.282 795,471.5C 791.404,478.211 785.904,482.378 778.5,484C 755.502,484.5 732.502,484.667 709.5,484.5C 709.5,469.167 709.5,453.833 709.5,438.5C 718.506,438.334 727.506,438.5 736.5,439C 737.475,444.741 737.808,450.575 737.5,456.5C 750.932,456.037 764.265,456.537 777.5,458C 778.602,460.401 778.769,462.901 778,465.5C 777.25,466.126 776.416,466.626 775.5,467C 759.5,467.667 743.5,467.667 727.5,467C 726.527,461.593 726.193,456.093 726.5,450.5C 724.5,450.5 722.5,450.5 720.5,450.5C 720.334,458.174 720.5,465.841 721,473.5C 724.416,474.148 727.916,474.482 731.5,474.5C 743.582,473.485 755.582,473.485 767.5,474.5C 777.364,475.299 783.698,470.966 786.5,461.5C 785.244,456.258 782.244,452.591 777.5,450.5 Z"/></g>
<g><path style="opacity:0.828" fill="#fefefe" d="M 980.5,450.5 C 972.528,449.169 964.194,448.502 955.5,448.5C 947.167,448.667 938.833,448.833 930.5,449C 934.356,449.177 938.023,449.677 941.5,450.5C 937.003,451.055 932.836,450.389 929,448.5C 928.196,439.785 928.363,431.118 929.5,422.5C 948.822,421.5 968.155,421.167 987.5,421.5C 987.5,419.5 987.5,417.5 987.5,415.5C 965.833,415.5 944.167,415.5 922.5,415.5C 922.5,435.167 922.5,454.833 922.5,474.5C 944.016,474.401 965.682,474.401 987.5,474.5C 987.5,472.167 987.5,469.833 987.5,467.5C 985.5,467.5 983.5,467.5 981.5,467.5C 973.528,466.169 965.194,465.502 956.5,465.5C 948.167,465.667 939.833,465.833 931.5,466C 933.058,466.21 934.391,466.71 935.5,467.5C 933.208,467.756 931.041,467.423 929,466.5C 928.216,463.24 928.383,460.073 929.5,457C 951.406,456.828 973.239,456.328 995,455.5C 996.729,455.974 997.895,456.974 998.5,458.5C 997.833,466.833 997.167,475.167 996.5,483.5C 968.662,483.169 940.995,483.502 913.5,484.5C 912.883,484.389 912.383,484.056 912,483.5C 911.5,457.169 911.333,430.835 911.5,404.5C 940.5,404.5 969.5,404.5 998.5,404.5C 998.5,413.833 998.5,423.167 998.5,432.5C 978.833,432.5 959.167,432.5 939.5,432.5C 939.5,434.5 939.5,436.5 939.5,438.5C 953.837,438.333 968.171,438.5 982.5,439C 983.622,442.409 983.789,445.909 983,449.5C 982.329,450.252 981.496,450.586 980.5,450.5 Z"/></g>
<g><path style="opacity:0.106" fill="#f2f2f2" d="M 595.5,408.5 C 595.775,421.204 595.442,433.87 594.5,446.5C 593.34,433.673 593.173,420.673 594,407.5C 594.383,408.056 594.883,408.389 595.5,408.5 Z"/></g>
<g><path style="opacity:0.331" fill="#f6f6f6" d="M 478.5,425.5 C 478.829,439.677 478.496,453.677 477.5,467.5C 476.834,460.675 476.5,453.675 476.5,446.5C 476.503,439.133 477.17,432.133 478.5,425.5 Z"/></g>
<g><path style="opacity:0.467" fill="#f0f0f0" d="M 262.5,431.5 C 262.5,428.5 262.5,425.5 262.5,422.5C 263.222,422.082 263.722,421.416 264,420.5C 264.667,435.167 264.667,449.833 264,464.5C 263.83,453.326 263.33,442.326 262.5,431.5 Z"/></g>
<g><path style="opacity:0.274" fill="#f2f2f2" d="M 313.5,484.5 C 304.435,485.136 295.769,484.47 287.5,482.5C 287.333,457.498 287.5,432.498 288,407.5C 288.5,432.831 288.667,458.164 288.5,483.5C 297.017,483.174 305.35,483.507 313.5,484.5 Z"/></g>
<g><path style="opacity:0.136" fill="#f2f2f2" d="M 838.5,406.5 C 838.667,420.837 838.5,435.171 838,449.5C 835.619,450.435 833.119,450.768 830.5,450.5C 830.389,449.883 830.056,449.383 829.5,449C 832.146,448.503 834.813,448.336 837.5,448.5C 837.171,434.323 837.504,420.323 838.5,406.5 Z"/></g>
<g><path style="opacity:0.084" fill="#ededed" d="M 677.5,450.5 C 663.167,450.5 648.833,450.5 634.5,450.5C 632.708,449.691 630.708,449.191 628.5,449C 645.167,448.333 661.833,448.333 678.5,449C 677.944,449.383 677.611,449.883 677.5,450.5 Z"/></g>
<g><path style="opacity:0.078" fill="#eeeeee" d="M 777.5,450.5 C 767.833,450.5 758.167,450.5 748.5,450.5C 748.082,449.778 747.416,449.278 746.5,449C 757.559,448.094 768.559,448.427 779.5,450C 778.906,450.464 778.239,450.631 777.5,450.5 Z"/></g>
<g><path style="opacity:0.079" fill="#eeeeee" d="M 980.5,450.5 C 967.5,450.5 954.5,450.5 941.5,450.5C 938.023,449.677 934.356,449.177 930.5,449C 938.833,448.833 947.167,448.667 955.5,448.5C 964.194,448.502 972.528,449.169 980.5,450.5 Z"/></g>
<g><path style="opacity:0.236" fill="#f0f0f0" d="M 998.5,458.5 C 998.666,467.173 998.5,475.84 998,484.5C 996.301,485.406 994.467,485.739 992.5,485.5C 993.833,484.833 995.167,484.167 996.5,483.5C 997.167,475.167 997.833,466.833 998.5,458.5 Z"/></g>
<g><path style="opacity:0.735" fill="#e8e8e8" d="M 845.5,465.5 C 845.167,466.167 844.833,466.833 844.5,467.5C 844.167,467.5 843.833,467.5 843.5,467.5C 833.341,466.67 823.008,466.17 812.5,466C 823.495,465.5 834.495,465.333 845.5,465.5 Z"/></g>
<g><path style="opacity:0.41" fill="#f5f5f5" d="M 845.5,465.5 C 857.838,465.333 870.171,465.5 882.5,466C 881.263,466.232 880.263,466.732 879.5,467.5C 867.833,467.5 856.167,467.5 844.5,467.5C 844.833,466.833 845.167,466.167 845.5,465.5 Z"/></g>
<g><path style="opacity:0.105" fill="#f0f0f0" d="M 679.5,467.5 C 662.833,467.5 646.167,467.5 629.5,467.5C 637.639,466.169 646.139,465.502 655,465.5C 663.5,465.667 672,465.833 680.5,466C 679.944,466.383 679.611,466.883 679.5,467.5 Z"/></g>
<g><path style="opacity:0.118" fill="#ededed" d="M 981.5,467.5 C 966.167,467.5 950.833,467.5 935.5,467.5C 934.391,466.71 933.058,466.21 931.5,466C 939.833,465.833 948.167,465.667 956.5,465.5C 965.194,465.502 973.528,466.169 981.5,467.5 Z"/></g>
<g><path style="opacity:0.338" fill="#ededed" d="M 897.5,458.5 C 897.5,467.167 897.5,475.833 897.5,484.5C 869.167,484.5 840.833,484.5 812.5,484.5C 840.328,483.502 868.328,483.169 896.5,483.5C 896.174,474.983 896.507,466.65 897.5,458.5 Z"/></g>
<g><path style="opacity:0.272" fill="#e1e1e1" d="M 913.5,484.5 C 940.995,483.502 968.662,483.169 996.5,483.5C 995.167,484.167 993.833,484.833 992.5,485.5C 966.211,484.518 939.878,484.185 913.5,484.5 Z"/></g>
</svg>
